<?xml version="1.0" encoding="utf-8"?>
<!-- Generator: Adobe Illustrator 26.0.1, SVG Export Plug-In . SVG Version: 6.00 Build 0)  -->
<svg version="1.1" xmlns="http://www.w3.org/2000/svg" xmlns:xlink="http://www.w3.org/1999/xlink" x="0px" y="0px"
	 viewBox="0 0 500 500" style="enable-background:new 0 0 500 500;" xml:space="preserve">
<style type="text/css">
	.st0{fill:#FFFFFF;}
	.st1{fill:#D1F4F5;}
	.st2{fill:#DF8D6D;}
	.st3{fill:#8C404C;}
	.st4{fill:#A64F5A;}
	.st5{fill:#F5D896;}
	.st6{fill:#F0BF6C;}
	.st7{fill:#454F6B;}
	.st8{fill:#56438C;}
	.st9{fill:#6C6FC3;}
	.st10{fill:none;stroke:#231F20;stroke-width:4;stroke-miterlimit:10;}
	.st11{fill:#E36B85;}
	.st12{fill:#F0BF9C;}
	.st13{fill:#E68799;}
	.st14{fill:#85C1CD;}
	.st15{fill:#D1FAF5;}
	.st16{fill:#93E3EF;}
	.st17{fill:#31203A;}
	.st18{fill:#402C49;}
	.st19{fill:#5D64AF;}
	.st20{fill:#0472AF;}
	.st21{fill:#0285B2;}
	.st22{fill:#119DCE;}
	.st23{fill:#45C7F4;}
	.st24{fill:#27AAE1;}
	.st25{fill:#2D4F3C;}
	.st26{fill:#4A705B;}
	.st27{fill:#638674;}
	.st28{fill:#DABE6B;}
	.st29{fill:#B0B369;}
	.st30{fill:#ED682E;}
	.st31{fill:#EBA25D;}
	.st32{fill:#EFB768;}
	.st33{fill:#A02758;}
	.st34{fill:#C43368;}
	.st35{fill:#D34672;}
	.st36{fill:#E47790;}
	.st37{fill:#DD5B7D;}
	.st38{fill:#F1C59A;}
	.st39{fill:#5195A8;}
	.st40{fill:#6CA8BC;}
	.st41{fill:#422C4F;}
	.st42{fill:#EBA588;}
	.st43{fill:#F6DCC5;}
	.st44{fill:#BD6C67;}
</style>
<g id="BACKGROUND">
	<polygon class="st0" points="500,500 0,500 0,0 250,0 500,0 	"/>
</g>
<g id="OBJECTS">
	<g>
		<g>
			<path class="st1" d="M84.15,191.37c-5.67,2.33-9.22,8.23-10.53,14.22c-1.32,5.99-0.8,12.21-0.63,18.35
				c0.14,5.25,0.03,10.59,1.52,15.62c1.49,5.03,4.92,9.83,9.94,11.39c5.64,1.75,11.94-1.1,15.76-5.6c3.83-4.5,5.63-10.35,6.96-16.11
				c1.37-5.95,2.32-12.09,1.65-18.16c-0.67-6.07-3.11-12.12-7.65-16.2C96.62,190.81,89.8,189.05,84.15,191.37z"/>
			<path class="st1" d="M154.6,83.84c-4.7,7.83-5.36,17.94-1.72,26.31c3.64,8.37,11.48,14.79,20.41,16.69
				c9.88,2.11,20.45-1.25,28.3-7.62c6.9-5.6,11.99-13.69,13-22.52c1.01-8.83-2.41-18.28-9.48-23.66c-5.74-4.36-13.29-5.78-20.5-5.44
				C172.78,68.15,160.7,73.68,154.6,83.84z"/>
			<path class="st1" d="M138.91,110.75c-1.02-5.47-5.39-9.86-10.42-12.27c-5.36-2.57-12.39-2.97-16.75,1.07
				c-2.38,2.21-3.63,5.45-3.95,8.69c-0.6,5.97,1.89,12.25,6.65,15.92c4.75,3.67,11.66,4.45,16.97,1.65
				C136.73,123.02,140.01,116.66,138.91,110.75z"/>
			<path class="st1" d="M365.16,98.45c-8.59,5.19-14.75,14.4-15.75,24.39c-1.01,9.98,3.36,20.45,11.46,26.38
				c6.73,4.92,15.49,6.54,23.78,5.62c8.93-1,17.73-5.02,23.38-12.01c9.15-11.35,7.75-29.53-2.53-39.87
				C395.21,92.61,377.65,90.91,365.16,98.45z"/>
			<path class="st1" d="M428.08,309.51c4.82-2.26,7.73-7.46,8.63-12.71c0.9-5.25,0.09-10.63-0.71-15.89
				c-1.26-8.23-2.52-16.46-3.78-24.69c-0.89-5.84-2.71-12.8-8.36-14.5c-3.7-1.12-7.81,0.7-10.39,3.58
				c-2.58,2.88-3.92,6.64-5.01,10.35c-2.27,7.76-3.7,15.77-4.25,23.84c-0.52,7.74-0.12,15.95,3.97,22.53
				C412.27,308.61,421.05,312.8,428.08,309.51z"/>
			<path class="st1" d="M95.93,380.33c-13.33-8.37-20.68-27.51-22.12-43.18c-1.45-15.67,4.78-31.86,16.35-42.53
				c10.93-10.08,26.56-15.86,33.15-29.19c7.1-14.36,0.85-31.36-4.42-46.49c-5.27-15.13-8.86-33.76,1.86-45.66
				c10.61-11.79,29.08-10.34,44.36-14.59c15.09-4.2,27.69-14.42,39.43-24.79c11.75-10.36,23.43-21.33,37.81-27.55
				c14.38-6.22,32.37-6.77,44.62,2.99c16.97,13.51,17,40.75,33.25,55.12c11.26,9.96,27.42,11.29,42.27,13.61
				c14.85,2.31,31.27,7.43,37.94,20.9c6.19,12.49,1.6,27.52-4.31,40.15c-5.91,12.62-13.29,25.49-12.48,39.41
				c0.71,12.19,7.66,23.06,14.94,32.87c7.28,9.8,15.3,19.51,18.78,31.22c3.48,11.71,1.18,31.04-9.04,37.73H95.93z"/>
		</g>
		<g>
			<rect x="62.9" y="380.33" class="st2" width="365.9" height="14.71"/>
			<g>
				<rect x="73.06" y="395.04" class="st3" width="345.58" height="9.56"/>
				<rect x="73.06" y="404.6" class="st4" width="345.58" height="15.09"/>
			</g>
		</g>
		<g>
			<g>
				<polygon class="st5" points="128.85,157.84 86.16,187 132.69,255.11 183.86,220.15 143.14,160.53 				"/>
				<polygon class="st6" points="134.65,166.33 143.14,160.53 128.85,157.84 				"/>
				<g>
					<path class="st7" d="M135.6,239.62l-33.96-49.71l32.78-22.39l33.96,49.71L135.6,239.62z M104.02,190.36l32.03,46.88L166,216.78
						l-32.03-46.88L104.02,190.36z"/>
				</g>
				<g>
					<path class="st4" d="M144.81,228.25c-10.31,0-21.35-6.06-28.38-16.7c-4.46-6.76-6.18-14.69-4.71-21.76
						c1.12-5.39,4.08-9.88,8.33-12.64c8.21-5.33,20.24-1.56,26.83,8.4c2.9,4.39,4.02,9.55,3.06,14.16
						c-0.74,3.53-2.68,6.47-5.47,8.28c-5.39,3.5-13.29,1.05-17.59-5.47c-1.9-2.88-2.63-6.27-2-9.29c0.49-2.34,1.78-4.29,3.63-5.5
						c3.59-2.33,8.84-0.73,11.69,3.59c1.26,1.91,1.74,4.16,1.32,6.18c-0.33,1.58-1.2,2.9-2.46,3.71c-2.44,1.59-5.99,0.52-7.9-2.38
						c-0.85-1.29-1.18-2.82-0.89-4.19c0.23-1.09,0.83-2.01,1.71-2.57c0.4-0.26,0.93-0.15,1.19,0.25c0.26,0.4,0.14,0.93-0.25,1.19
						c-0.62,0.41-0.87,1.03-0.96,1.49c-0.19,0.93,0.04,1.98,0.65,2.89c1.4,2.12,3.89,2.97,5.54,1.89c0.88-0.57,1.48-1.48,1.71-2.63
						c0.33-1.57-0.06-3.35-1.08-4.89c-2.33-3.53-6.52-4.92-9.32-3.09c-1.49,0.97-2.49,2.49-2.89,4.41c-0.54,2.58,0.1,5.5,1.75,8
						c3.79,5.74,10.62,7.97,15.23,4.97c2.44-1.58,4.07-4.07,4.72-7.2c0.87-4.16-0.16-8.85-2.81-12.86
						c-6.07-9.18-17.04-12.73-24.46-7.91c-3.92,2.54-6.54,6.54-7.59,11.55c-1.38,6.63,0.24,14.09,4.46,20.46
						c9.62,14.56,27.07,20.17,38.89,12.5c0.4-0.26,0.93-0.14,1.19,0.25c0.26,0.4,0.14,0.93-0.25,1.19
						C153.81,227.06,149.38,228.25,144.81,228.25z"/>
				</g>
			</g>
			<g>
				<path class="st8" d="M175.78,143.69c1.02,2.37-1.06,5.55-4.64,7.09c-3.59,1.54-7.32,0.87-8.34-1.5
					c-1.02-2.37,1.06-5.55,4.64-7.09C171.03,140.64,174.76,141.31,175.78,143.69z"/>
				<path class="st9" d="M157.36,135.76c-1.03,0.45-1.51,1.64-1.07,2.68l4.42,10.27c0.58,1.36,4.66,0.91,9.1-1
					c4.44-1.91,7.57-4.56,6.98-5.92l-4.42-10.27c-0.45-1.03-1.64-1.51-2.68-1.07L157.36,135.76z"/>
				<path class="st6" d="M172.81,94.55c-5.39-12.52-20.26-18.04-32.61-11.79c-10.39,5.26-15.48,17.59-11.8,28.64
					c2.96,8.88,10.46,14.7,18.88,16.04c4.13,0.65,7.63,3.38,9.28,7.21l1.23,2.86c0.47,1.09,3.73,0.73,7.29-0.8s6.06-3.66,5.59-4.75
					l-1.23-2.86c-1.68-3.9-1.13-8.34,1.24-11.86C175.05,110.76,176.13,102.26,172.81,94.55z"/>
				<g>
					<g>
						<path class="st0" d="M136.23,115.97c-0.74,0.32-1.63,0.08-2.09-0.61c-1.05-1.55-1.89-3.25-2.49-5.04
							c-2.37-7.1-0.49-15.19,4.79-20.6c0.66-0.68,1.75-0.69,2.42-0.03s0.69,1.75,0.03,2.42c-4.39,4.5-5.96,11.23-3.99,17.13
							c0.5,1.5,1.2,2.91,2.07,4.21c0.53,0.78,0.33,1.85-0.46,2.38C136.42,115.88,136.33,115.93,136.23,115.97z"/>
					</g>
					<g>
						<path class="st0" d="M142.38,121.69c-0.48,0.21-1.05,0.19-1.53-0.09c-1.04-0.6-2.03-1.29-2.95-2.06
							c-0.73-0.61-0.82-1.69-0.21-2.41c0.61-0.73,1.69-0.82,2.41-0.21c0.76,0.64,1.59,1.22,2.45,1.71c0.82,0.47,1.1,1.52,0.63,2.34
							C143,121.3,142.71,121.54,142.38,121.69z"/>
					</g>
				</g>
				<path class="st10" d="M161.29,132.63"/>
			</g>
			<g>
				<g>
					<path class="st11" d="M201.83,85.82c0.5-0.47,1.1-0.82,1.74-1.05l-3.47-1.85c-0.62-0.33-1.3,0.34-0.97,0.97l1.83,3.45
						c0.02-0.16,0.05-0.33,0.11-0.48C201.24,86.46,201.51,86.11,201.83,85.82z"/>
					<path class="st12" d="M212.32,89.42l-8.75-4.65c-0.64,0.23-1.25,0.58-1.74,1.05c-0.31,0.3-0.59,0.64-0.75,1.04
						c-0.06,0.15-0.09,0.31-0.11,0.48l4.67,8.77L212.32,89.42z"/>
				</g>
				<g>
					<path class="st13" d="M205.63,96.1l38.59,38.59l2.23-2.23l-39.91-39.91C205.44,94.05,205.02,95.5,205.63,96.1z"/>
					<path class="st11" d="M207.58,91.36c-0.39,0.39-0.74,0.79-1.03,1.2l39.91,39.91l2.23-2.23l-39.91-39.91
						C208.37,90.63,207.97,90.97,207.58,91.36z"/>
					<path class="st13" d="M212.32,89.42c-0.61-0.61-2.06-0.19-3.55,0.91l39.91,39.91l2.23-2.23L212.32,89.42z"/>
				</g>
				<path class="st12" d="M250.91,128.01c0.77,0.77-0.1,2.89-1.94,4.74c-1.85,1.85-3.97,2.72-4.74,1.94
					c-0.77-0.77,0.1-2.89,1.94-4.74C248.02,128.11,250.14,127.24,250.91,128.01z"/>
				<path class="st11" d="M248.84,130.08c0.29,0.29-0.04,1.11-0.74,1.81c-0.7,0.71-1.52,1.04-1.81,0.74
					c-0.29-0.29,0.04-1.11,0.74-1.81C247.74,130.12,248.55,129.78,248.84,130.08z"/>
			</g>
			<g>
				<g>
					<path class="st6" d="M341.3,99.07c-5.65-7.37-14.49-11.93-23.64-13.47c-9.16-1.54-18.63-0.24-27.49,2.54
						c-5.87,1.84-11.61,4.37-16.42,8.2c-4.81,3.83-8.67,9.07-10.08,15.06c-1.41,5.99-0.14,12.73,3.99,17.3
						c3.88,4.29,9.81,6.28,15.59,6.58c5.78,0.31,11.53-0.87,17.21-1.99c1.5-0.3,3.03-0.59,4.55-0.39c1.52,0.19,3.04,0.96,3.76,2.31
						c0.84,1.58,0.41,3.55,0.92,5.26c0.66,2.22,2.86,3.72,5.13,4.15c2.27,0.44,4.62-0.01,6.86-0.59
						c10.18-2.66,20.14-8.87,23.98-18.66C349.04,116.72,346.95,106.44,341.3,99.07z M324.99,138.28c-3.98,2.19-8.46,1.69-10.01-1.11
						c-1.54-2.8,0.44-6.85,4.42-9.04c3.98-2.19,8.46-1.69,10.01,1.11C330.95,132.04,328.97,136.09,324.99,138.28z"/>
					<path class="st5" d="M341.3,97.83c-5.65-7.37-14.49-11.93-23.64-13.47c-9.16-1.54-18.63-0.24-27.49,2.54
						c-5.87,1.84-11.61,4.37-16.42,8.2c-4.81,3.83-8.67,9.07-10.08,15.06s-0.14,12.73,3.99,17.3c3.88,4.29,9.81,6.28,15.59,6.58
						c5.78,0.31,11.53-0.87,17.21-1.99c1.5-0.3,3.03-0.59,4.55-0.39c1.52,0.19,3.04,0.96,3.76,2.31c0.84,1.58,0.41,3.55,0.92,5.26
						c0.66,2.22,2.86,3.72,5.13,4.15c2.27,0.44,4.62-0.01,6.86-0.59c10.18-2.66,20.14-8.87,23.98-18.66
						C349.04,115.48,346.95,105.2,341.3,97.83z M324.99,137.04c-3.98,2.19-8.46,1.69-10.01-1.11c-1.54-2.8,0.44-6.85,4.42-9.04
						c3.98-2.19,8.46-1.69,10.01,1.11C330.95,130.8,328.97,134.85,324.99,137.04z"/>
					<g>
						<path class="st9" d="M308.35,120.69c-0.3-1.69,2.17-2.89,1.97-4.6c-0.14-1.18-1.49-1.81-2.68-1.9
							c-1.19-0.08-2.43,0.14-3.53-0.31c-1.16-0.48-2.1-1.68-3.35-1.57c-1.12,0.09-1.83,1.18-2.52,2.06
							c-1.13,1.44-2.64,2.59-4.33,3.3c-0.85,0.36-1.77,0.62-2.46,1.23c-0.69,0.61-1.05,1.73-0.49,2.46
							c0.63,0.81,2.01,0.72,2.61,1.55c0.53,0.74,0.16,1.8,0.51,2.64c0.34,0.82,1.29,1.23,2.17,1.23c0.88,0.01,1.73-0.31,2.58-0.54
							c1.99-0.55,4.09-0.69,6.13-0.4c1.12,0.15,2.26,0.43,3.36,0.17s2.13-1.29,1.9-2.4C309.99,122.48,308.56,121.85,308.35,120.69z"
							/>
						<path class="st11" d="M289.51,113.51c0.74-0.92,1.76-1.57,2.76-2.2c1-0.63,2.02-1.29,2.73-2.23c0.71-0.95,1.06-2.25,0.58-3.33
							c-0.57-1.28-2.07-1.85-3.46-2.03c-1.39-0.18-2.84-0.1-4.13-0.64c-0.88-0.37-1.61-1-2.45-1.46c-0.83-0.46-1.86-0.75-2.73-0.36
							c-1.25,0.56-1.57,2.17-1.62,3.54c-0.05,1.37-0.1,2.94-1.14,3.82c-1.04,0.87-2.6,0.68-3.84,1.23
							c-1.55,0.69-2.38,2.68-1.78,4.27c0.6,1.59,2.55,2.52,4.17,2c0.98-0.31,1.8-1.07,2.82-1.19c1.96-0.24,3.78,1.93,5.64,1.28
							C288.23,115.79,288.74,114.47,289.51,113.51z"/>
						<path class="st14" d="M315.27,105.45c0.75-0.26,1.49-0.63,2.05-1.19c0.56-0.56,0.94-1.35,0.88-2.14
							c-0.08-1.07-0.91-1.93-1.73-2.62c-0.82-0.7-1.73-1.39-2.1-2.4c-0.3-0.81-0.2-1.69-0.22-2.55c-0.02-0.86-0.19-1.8-0.85-2.35
							c-0.62-0.51-1.51-0.55-2.3-0.4c-0.79,0.15-1.54,0.47-2.34,0.58c-1.17,0.15-2.34-0.15-3.49-0.4c-1.15-0.25-2.37-0.44-3.49-0.08
							c-1.12,0.37-2.08,1.47-1.9,2.63c0.12,0.77,0.71,1.42,0.82,2.19c0.15,1.07-0.61,2.02-1.34,2.81c-0.73,0.79-1.54,1.68-1.5,2.76
							c0.04,1.01,0.87,1.87,1.82,2.22c0.95,0.35,2,0.3,3.01,0.17c1.01-0.12,2.02-0.31,3.03-0.2c1.31,0.14,2.51,0.77,3.78,1.13
							C311.32,106.17,313.4,106.11,315.27,105.45z"/>
						<path class="st6" d="M326.14,118.47c0.12,0.01,0.24,0.01,0.36-0.01c1.56-0.15,2.69-1.32,4.09-1.9
							c1.49-0.62,3.17-0.48,4.79-0.51c1.62-0.03,3.38-0.31,4.46-1.51c1.13-1.25,1.16-4.53,0.07-5.82c-0.76-0.9-2.02-1.21-2.95-1.94
							c-0.73-0.58-1.22-1.4-1.7-2.21c-0.9-1.53-1.7-3.88-3.88-3.74c-1.1,0.07-1.93,1.03-2.46,1.99c-0.53,0.97-0.93,2.05-1.75,2.78
							c-0.88,0.78-2.11,1.03-3.28,1.18c-1.17,0.14-2.39,0.22-3.44,0.76c-1.4,0.71-2.17,2.48-1.61,4c0.56,1.51,2.86,0.96,3.83,2.07
							c0.57,0.65,0.55,1.61,0.8,2.44C323.84,117.26,324.87,118.39,326.14,118.47z"/>
					</g>
				</g>
				<g>
					<path class="st9" d="M360.74,112.14c-1.15-1.71-1.01-4.19,0.33-5.76c1.04-1.22,2.62-1.84,4.16-2.27
						c1.55-0.43,3.15-0.73,4.56-1.5c1.41-0.77,2.61-2.16,2.62-3.77c0.56,3.91-0.03,8.12-2.51,11.19c-1.09,1.35-2.46,2.52-4.09,3.09
						C364.18,113.71,361.7,113.58,360.74,112.14z"/>
					<path class="st0" d="M362.57,110.32L362.57,110.32c-0.49-0.49-1.28-0.51-1.79-0.05l-12.49,11.2l3.13,3.13l11.2-12.49
						C363.08,111.59,363.06,110.81,362.57,110.32z"/>
					<path class="st3" d="M300.97,171.91L300.97,171.91c-0.59-0.59-0.6-1.54-0.02-2.14l46.29-47.85c1.02-1.06,2.71-1.07,3.75-0.03
						l0,0c1.04,1.04,1.03,2.73-0.03,3.75l-47.85,46.29C302.51,172.51,301.56,172.5,300.97,171.91z"/>
				</g>
			</g>
			<g>
				<path class="st8" d="M118.55,303.41l-40.89,3.65c-2.18,0.19-4.11-1.42-4.3-3.6l-3.65-40.89c-0.19-2.18,1.42-4.11,3.6-4.3
					l40.89-3.65c2.18-0.19,4.11,1.42,4.3,3.6l3.65,40.89C122.34,301.29,120.73,303.21,118.55,303.41z"/>
				<g>
					<path class="st15" d="M105.32,291.3l4.19-11.38l-10.15-8.49l-10.46,6.13l-4.29,18.21l1.17,0.98l9.45-11.3
						c-1.27-1.55-1.31-3.82,0.02-5.41c1.5-1.8,4.18-2.04,5.98-0.53c1.8,1.5,2.04,4.18,0.53,5.98c-1.33,1.59-3.58,1.96-5.32,0.98
						l-9.45,11.3l1.17,0.98L105.32,291.3z"/>
					
						<rect x="100.03" y="266.55" transform="matrix(0.7671 0.6415 -0.6415 0.7671 199.3989 -5.8369)" class="st16" width="15.43" height="10.32"/>
				</g>
				<g>
					<path class="st16" d="M81.72,301.48c-0.39,0.03-0.77,0.01-1.14-0.07c-1-0.23-1.92-0.94-2.53-1.95
						c-0.86-1.42-0.98-2.95-0.98-4.38c0-3.13,1-6.07,1.98-8.53c0.29-0.74,0.6-1.47,0.91-2.21c0.76-1.81,1.54-3.67,2.07-5.56
						c0.82-2.95,0.87-5.55,0.15-7.72c-0.83-2.5-2.87-4.43-5.09-4.81c-0.54-0.09-0.91-0.61-0.81-1.15c0.09-0.54,0.61-0.91,1.15-0.82
						c2.96,0.51,5.57,2.93,6.64,6.15c0.85,2.56,0.81,5.55-0.12,8.89c-0.56,2.01-1.37,3.94-2.15,5.8c-0.3,0.72-0.61,1.44-0.9,2.17
						c-0.91,2.28-1.84,5-1.84,7.79c0,1.14,0.08,2.34,0.69,3.35c0.33,0.55,0.79,0.92,1.26,1.03c0.49,0.11,1.01-0.05,1.35-0.2
						c0.53-0.23,1.04-0.61,1.53-0.97c0.44-0.33,1.07-0.23,1.4,0.21c0.33,0.44,0.23,1.07-0.21,1.4c-0.55,0.4-1.17,0.86-1.91,1.18
						C82.7,301.3,82.2,301.43,81.72,301.48z"/>
				</g>
			</g>
			<g>
				<g>
					
						<rect x="340.66" y="217.86" transform="matrix(0.933 -0.3599 0.3599 0.933 -58.8329 141.3888)" class="st17" width="19.34" height="21.71"/>
					
						<rect x="358.91" y="212.01" transform="matrix(0.933 -0.3599 0.3599 0.933 -55.7158 146.4492)" class="st18" width="13.13" height="21.71"/>
					
						<rect x="371.16" y="207.29" transform="matrix(0.933 -0.3599 0.3599 0.933 -53.194 150.5419)" class="st8" width="13.13" height="21.71"/>
					
						<rect x="395.67" y="197.83" transform="matrix(0.933 -0.3599 0.3599 0.933 -48.1508 158.731)" class="st9" width="13.13" height="21.71"/>
					
						<rect x="383.42" y="202.56" transform="matrix(0.933 -0.3599 0.3599 0.933 -50.6723 154.6353)" class="st19" width="13.13" height="21.71"/>
				</g>
				<g>
					
						<rect x="341.84" y="214.46" transform="matrix(0.8144 -0.5803 0.5803 0.8144 -65.5099 245.803)" class="st20" width="19.34" height="21.71"/>
					
						<rect x="358.17" y="205.04" transform="matrix(0.8144 -0.5803 0.5803 0.8144 -57.5889 251.7235)" class="st21" width="13.13" height="21.71"/>
					
						<rect x="368.87" y="197.42" transform="matrix(0.8144 -0.5803 0.5803 0.8144 -51.1807 256.5175)" class="st22" width="13.13" height="21.71"/>
					
						<rect x="390.26" y="182.18" transform="matrix(0.8144 -0.5803 0.5803 0.8144 -38.365 266.101)" class="st23" width="13.13" height="21.71"/>
					
						<rect x="379.56" y="189.8" transform="matrix(0.8144 -0.5803 0.5803 0.8144 -44.7727 261.3101)" class="st24" width="13.13" height="21.71"/>
				</g>
				<g>
					
						<rect x="342.21" y="211.86" transform="matrix(0.6963 -0.7178 0.7178 0.6963 -52.9798 320.2247)" class="st25" width="19.34" height="21.71"/>
					
						<rect x="356.61" y="200.2" transform="matrix(0.6962 -0.7178 0.7178 0.6962 -41.1804 324.8013)" class="st26" width="13.13" height="21.71"/>
					
						<rect x="365.76" y="190.78" transform="matrix(0.6962 -0.7178 0.7178 0.6962 -31.635 328.5034)" class="st27" width="13.13" height="21.71"/>
					
						<rect x="384.05" y="171.92" transform="matrix(0.6962 -0.7178 0.7178 0.6962 -12.5461 335.902)" class="st28" width="13.13" height="21.71"/>
					
						<rect x="374.9" y="181.35" transform="matrix(0.6962 -0.7178 0.7178 0.6962 -22.0904 332.2031)" class="st29" width="13.13" height="21.71"/>
				</g>
				<g>
					
						<rect x="342.06" y="209.09" transform="matrix(0.5474 -0.8369 0.8369 0.5474 -24.8606 393.9174)" class="st30" width="19.34" height="21.71"/>
					
						<rect x="354.05" y="195.5" transform="matrix(0.5474 -0.8369 0.8369 0.5474 -9.466 395.2058)" class="st31" width="13.13" height="21.71"/>
					
						<rect x="361.24" y="184.51" transform="matrix(0.5474 -0.8369 0.8369 0.5474 2.9877 396.2481)" class="st32" width="13.13" height="21.71"/>
					
						<rect x="375.62" y="162.53" transform="matrix(0.5474 -0.8369 0.8369 0.5474 27.8922 398.3276)" class="st5" width="13.13" height="21.71"/>
					
						<rect x="368.43" y="173.52" transform="matrix(0.5474 -0.8369 0.8369 0.5474 15.4392 397.2865)" class="st6" width="13.13" height="21.71"/>
				</g>
				<g>
					
						<rect x="341.25" y="205.97" transform="matrix(0.3509 -0.9364 0.9364 0.3509 24.7366 469.337)" class="st33" width="19.34" height="21.71"/>
					
						<rect x="350.05" y="190.77" transform="matrix(0.3509 -0.9364 0.9364 0.3509 42.6704 464.8038)" class="st34" width="13.13" height="21.71"/>
					
						<rect x="354.66" y="178.47" transform="matrix(0.3509 -0.9364 0.9364 0.3509 57.1778 461.1365)" class="st35" width="13.13" height="21.71"/>
					
						<rect x="363.88" y="153.87" transform="matrix(0.3509 -0.9364 0.9364 0.3509 86.1937 453.8028)" class="st36" width="13.13" height="21.71"/>
					
						<rect x="359.27" y="166.17" transform="matrix(0.3509 -0.9364 0.9364 0.3509 71.6857 457.4696)" class="st37" width="13.13" height="21.71"/>
				</g>
				<path class="st17" d="M343.2,220.44c-0.28,0.75-1.11,1.13-1.86,0.85c-0.75-0.28-1.13-1.11-0.85-1.86
					c0.28-0.75,1.11-1.13,1.86-0.85C343.1,218.86,343.48,219.7,343.2,220.44z"/>
			</g>
			<g>
				<path class="st36" d="M409.18,303.3l-37.45-15.62c-2.32-0.97-3.42-3.64-2.45-5.96l15.62-37.45c0.97-2.32,3.64-3.42,5.96-2.45
					l37.45,15.62c2.32,0.97,3.42,3.64,2.45,5.96l-15.62,37.45C414.17,303.18,411.5,304.27,409.18,303.3z"/>
				<g>
					<path class="st38" d="M393.15,252.67l25.83,10.78l-3.57,8.67l-1.24-0.52c0.89-3.26,0.6-5.84-0.86-7.73
						c-0.82-1.05-2.29-2.05-4.41-3l-9.43,22.6c-0.66,1.58-0.82,2.74-0.48,3.49c0.34,0.75,1.38,1.49,3.12,2.21l-0.45,1.09
						l-15.29-6.38l0.45-1.09c1.68,0.7,2.9,0.9,3.67,0.61c0.77-0.29,1.48-1.22,2.14-2.79l9.43-22.6c-2.12-0.82-3.86-1.16-5.23-1.02
						c-2.52,0.26-4.55,1.87-6.1,4.83l-1.24-0.52L393.15,252.67z"/>
				</g>
			</g>
		</g>
		<g>
			<g>
				<g>
					<path class="st39" d="M133.87,370.89c7.91,1.86,16.29-1.72,20.29-9.08l31.43-57.74h-15.57L133.87,370.89z"/>
					<path class="st40" d="M235.26,259.29l-40.77-10.87c-11.06-2.95-22.7,2.12-28.07,12.22l-46.87,88.12
						c-3.8,7.15-0.68,16.02,6.77,19.21l4.52,1.93c1,0.43,2.01,0.75,3.04,0.99l36.16-66.82h15.57h49.66V259.29z"/>
				</g>
				<g>
					<path class="st40" d="M364.89,345.8l-1.81-4.92l-58.29-83.38c-5.93-8.48-16.52-12.34-26.51-9.68l-43.02,11.47v44.78
						l59.66,63.69h54.64C360.91,367.76,368.8,356.46,364.89,345.8z M315.54,296.36l39.41,49.7l-44.27-15.42L315.54,296.36z"/>
					<path class="st39" d="M364.13,342.38l-1.05-1.5l1.81,4.92c3.91,10.66-3.98,21.96-15.33,21.96h-54.64l11.77,12.57h37.66
						C363.86,380.33,375.31,358.37,364.13,342.38z"/>
					<polygon class="st39" points="315.54,296.36 310.69,330.63 354.96,346.05 					"/>
				</g>
				<g>
					<g>
						<path class="st3" d="M276.2,180.13c-2.4-4.82-5.65-9.46-10.34-12.1c-4.7-2.64-11.71-2.6-15.76,0.94
							c-3.93-6.66-12.11-10.05-19.83-9.74c-7.73,0.31-15.02,3.83-21.31,8.33c-5.6,4.01-10.65,8.91-14.15,14.84
							c-4.8,8.13-6.45,17.89-5.72,27.3c0.27,3.44,0.84,6.83,1.66,10.18c4.63-2.39,10.15-2.96,10.15-2.96l67.85-5.28
							c4.68,0.84,8.88,2.68,12.24,5.12C283.34,204.45,281.79,191.37,276.2,180.13z"/>
						<path class="st41" d="M200.9,216.92c0,0-5.52,0.57-10.15,2.96c1.41,5.82,3.55,11.48,6.09,16.92c25.14,0.32,51.68,0,76.81-0.99
							c3.6-5.83,6.05-12.33,7.34-19.06c-3.36-2.44-7.57-4.28-12.24-5.12L200.9,216.92z"/>
					</g>
					<g>
						<circle class="st42" cx="197.91" cy="238.77" r="10.6"/>
						<path class="st2" d="M197.91,243.38c-2.54,0-4.61-2.07-4.61-4.61c0-2.54,2.07-4.61,4.61-4.61c2.54,0,4.61,2.07,4.61,4.61
							C202.51,241.31,200.45,243.38,197.91,243.38z"/>
						<circle class="st42" cx="273.07" cy="238.77" r="10.6"/>
						<path class="st2" d="M273.07,243.38c-2.54,0-4.61-2.07-4.61-4.61c0-2.54,2.07-4.61,4.61-4.61c2.54,0,4.61,2.07,4.61,4.61
							C277.67,241.31,275.61,243.38,273.07,243.38z"/>
					</g>
					<g>
						<path class="st42" d="M239.57,192.25c6.14,15.95,21.25,23.57,30.81,26.34c-0.39-2.39-0.93-4.72-1.63-6.95
							c-12.04-2.56-22.89-10.41-29.11-21.11c-8.97,13.26-23.15,22.83-38.74,26.39c-0.35,1.79-0.6,3.62-0.76,5.49
							C219.17,217.09,235.41,206.04,239.57,192.25z"/>
						<path class="st12" d="M239.57,192.25c-4.16,13.78-20.4,24.84-39.44,30.16c-0.13,1.47-0.2,2.96-0.2,4.47
							c0,23.78,15.92,43.06,35.56,43.06c19.64,0,35.56-19.28,35.56-43.06c0-2.84-0.23-5.61-0.67-8.29
							C260.82,215.82,245.71,208.21,239.57,192.25z"/>
					</g>
					<g>
						<g>
							<path class="st3" d="M213.49,220.2c3.67-2.74,7.94-3.09,11.9-0.73c2.38,1.42,4.53-2.28,2.16-3.7
								c-5.16-3.08-11.38-2.89-16.22,0.73C209.14,218.13,211.27,221.85,213.49,220.2L213.49,220.2z"/>
						</g>
						<circle class="st41" cx="219.44" cy="226.6" r="3.64"/>
					</g>
					<g>
						<g>
							<path class="st3" d="M257.49,220.2c-3.67-2.74-7.94-3.09-11.9-0.73c-2.38,1.42-4.53-2.28-2.16-3.7
								c5.16-3.08,11.38-2.89,16.22,0.73C261.84,218.13,259.71,221.85,257.49,220.2L257.49,220.2z"/>
						</g>
						<path class="st41" d="M247.9,226.6c0,2.01,1.63,3.64,3.64,3.64c2.01,0,3.64-1.63,3.64-3.64c0-2.01-1.63-3.64-3.64-3.64
							C249.53,222.95,247.9,224.58,247.9,226.6z"/>
					</g>
					<path class="st42" d="M228.76,237.81c1.46,2.15,3.93,3.57,6.74,3.57c2.8,0,5.27-1.42,6.74-3.57H228.76z"/>
					<g>
						<path class="st0" d="M230.47,252.44c1.37,0.61,2.94,0.59,4.44,0.45c3.87-0.37,7.65-1.54,11.02-3.41
							c0.79-0.44,1.59-0.95,2.04-1.72c0.45-0.78,0.46-1.67,0.3-2.57c-6.32,2.86-13.1,4.68-20.01,5.35
							C228.78,251.36,229.56,252.04,230.47,252.44z"/>
						<path class="st3" d="M250.47,244.16c-0.73,0.36-1.47,0.7-2.21,1.04c0.16,0.9,0.15,1.79-0.3,2.57
							c-0.45,0.77-1.25,1.28-2.04,1.72c-3.37,1.87-7.15,3.04-11.02,3.41c-1.5,0.14-3.07,0.16-4.44-0.45
							c-0.91-0.4-1.68-1.08-2.21-1.9c-0.95,0.09-1.91,0.17-2.86,0.22c0.9,3.66,4.03,6.76,7.62,7.9c3.59,1.14,7.57,0.65,11.01-0.88
							c2.55-1.14,4.9-2.88,6.33-5.28C251.78,250.11,251.65,246.69,250.47,244.16z"/>
					</g>
				</g>
				<ellipse class="st12" cx="134.24" cy="362.9" rx="21.07" ry="16.57"/>
				<path class="st18" d="M148.28,367.36l-5.8-2.47c-6.23-2.65-13.19-2.65-19.43,0l-5.8,2.47c-3.85,1.64-5.28,6.62-2.95,10.25
					l1.75,2.72h33.44l1.75-2.72C153.57,373.98,152.13,369,148.28,367.36z"/>
				<path class="st12" d="M140.47,374.26L140.47,374.26c-2.35,0-4.25-1.9-4.25-4.25v-11.88h8.51V370
					C144.72,372.35,142.81,374.26,140.47,374.26z"/>
			</g>
			<g>
				<path class="st8" d="M329.76,260.66H153.95c-2.59,0-4.58,2.29-4.22,4.86l14.21,100.56c0.3,2.11,2.11,3.69,4.24,3.69h147.36
					c2.13,0,3.94-1.57,4.24-3.69l14.21-100.56C334.35,262.95,332.35,260.66,329.76,260.66z"/>
				<path class="st18" d="M317.18,380.33H166.53c-1.36,0-2.46-1.1-2.46-2.46v-2.79c0-1.36,1.1-2.46,2.46-2.46h150.65
					c1.36,0,2.46,1.1,2.46,2.46v2.79C319.64,379.23,318.54,380.33,317.18,380.33z"/>
				<g>
					<path class="st9" d="M173.23,347.58c11.67,6.72,25.11,9.87,38.53,11.05c19.98,1.75,40.7-0.85,58.51-10.09
						c17.8-9.24,32.38-25.6,36.95-45.12c3.14-13.39,1.02-28.1-5.79-39.91H153.95c-2.59,0-4.58,2.29-4.22,4.86l9.66,68.39
						C163.44,341.01,168.15,344.66,173.23,347.58z"/>
					<path class="st19" d="M329.76,263.51h-28.34c6.81,11.81,8.93,26.52,5.79,39.91c-4.58,19.53-19.15,35.89-36.95,45.12
						c-17.8,9.24-38.52,11.84-58.51,10.09c-13.42-1.18-26.86-4.33-38.53-11.05c-5.07-2.92-9.79-6.57-13.84-10.82l4.54,32.17
						c0.3,2.11,2.11,3.69,4.24,3.69h147.36c2.13,0,3.94-1.57,4.24-3.69l14.21-100.56C334.35,265.81,332.35,263.51,329.76,263.51z"/>
				</g>
				<path class="st15" d="M256.91,322.69c-1.03,6.71-7.72,11.51-15.05,11.51c-7.33,0-14.02-4.8-15.05-11.51
					c-1.2-7.78,5.46-15.05,15.05-15.05C251.45,307.64,258.1,314.91,256.91,322.69z"/>
			</g>
			<g>
				<g>
					<polygon class="st6" points="367.04,380.33 393.14,380.33 394.54,371.26 365.64,371.26 					"/>
					<polygon class="st6" points="400.62,331.77 359.56,331.77 361.27,342.91 398.91,342.91 					"/>
					<polygon class="st31" points="365.32,369.19 365.64,371.26 394.54,371.26 394.86,369.19 					"/>
					<polygon class="st43" points="398.91,342.91 361.27,342.91 365.32,369.19 394.86,369.19 					"/>
				</g>
				<polygon class="st3" points="403.52,327.13 356.66,327.13 356.02,331.77 404.16,331.77 				"/>
				<polygon class="st4" points="398.12,322.49 362.06,322.49 360.79,327.13 399.39,327.13 				"/>
				<rect x="370.61" y="320.28" class="st44" width="18.95" height="2.21"/>
			</g>
		</g>
	</g>
</g>
<g id="DESIGNED_BY_FREEPIK">
</g>
</svg>
