<?xml version="1.0" encoding="utf-8"?>
<!-- Generator: Adobe Illustrator 26.0.1, SVG Export Plug-In . SVG Version: 6.00 Build 0)  -->
<svg version="1.1" id="Layer_1" xmlns="http://www.w3.org/2000/svg" xmlns:xlink="http://www.w3.org/1999/xlink" x="0px" y="0px"
	 viewBox="0 0 500 362.7" style="enable-background:new 0 0 500 362.7;" xml:space="preserve">
<style type="text/css">
	.st0{fill:#E0E0E0;}
	.st1{fill:#EBEBEB;}
	.st2{opacity:0.29;}
	.st3{fill:#C9C8C3;}
	.st4{fill:none;stroke:#C9C8C3;stroke-width:2.0753;stroke-miterlimit:10;}
	.st5{fill:#FFFFFF;}
	.st6{fill:#122832;}
	.st7{fill:none;stroke:#122832;stroke-width:5.9175;stroke-miterlimit:10;}
	.st8{fill:#DF9257;}
	.st9{fill:#B6613B;}
	.st10{fill:#009FBF;}
	.st11{fill:#006A80;}
	.st12{fill:#0E162E;}
	.st13{opacity:0.33;fill:#FFFFFF;enable-background:new    ;}
	.st14{fill:none;stroke:#0E162E;stroke-width:2.1559;stroke-miterlimit:10;}
	.st15{fill:none;stroke:#0E162E;stroke-width:1.6574;stroke-miterlimit:10;}
	.st16{fill:#FC1381;}
	.st17{fill:#A3135F;}
	.st18{fill:none;stroke:#FFFFFF;stroke-width:1.3108;stroke-miterlimit:10;}
	.st19{fill:#000664;}
	.st20{fill:#FFB701;}
	.st21{fill:none;stroke:#FFB701;stroke-width:2.6215;stroke-miterlimit:10.0001;}
	.st22{opacity:0.61;}
	.st23{fill:none;stroke:#FFB701;stroke-width:1.4965;stroke-miterlimit:10;}
	.st24{opacity:0.22;fill:#A0A0A0;enable-background:new    ;}
	.st25{fill:none;stroke:#A0A0A0;stroke-width:0.7707;stroke-miterlimit:10;}
	.st26{fill:none;stroke:#A0A0A0;stroke-width:0.7707;stroke-miterlimit:10;stroke-dasharray:5.2448,5.2448;}
	.st27{fill:none;stroke:#A0A0A0;stroke-width:0.7707;stroke-miterlimit:10;stroke-dasharray:4.9991,4.9991;}
	.st28{fill:#FFFFFF;stroke:#222221;stroke-width:1.7438;stroke-miterlimit:10;}
	.st29{fill:none;stroke:#A0A0A0;stroke-width:0.7707;stroke-miterlimit:10;stroke-dasharray:5.2314;}
	.st30{fill:#F5F5F5;}
</style>
<g id="Background_Complete">
	<rect x="222.8" y="331.5" class="st0" width="10" height="0.2"/>
	<polygon class="st1" points="411.8,48.2 406.3,53.8 411.8,58.5 416.8,53.4 	"/>
	<g id="OBJECTS">
		<g class="st2">
			<path class="st3" d="M193.5,161.3h93.7V83.7h-76.7c-6.6,7.1-10.3,11.1-17,18.2V161.3z"/>
			<line class="st4" x1="289.3" y1="84.6" x2="305.7" y2="84.6"/>
			<line class="st4" x1="286.7" y1="81.3" x2="286.7" y2="63.7"/>
			<polyline class="st5" points="212.1,85.2 212.1,103.3 195.1,103.3 			"/>
		</g>
		<g>
			<g>
				<g>
					<path class="st6" d="M388.9,192.8l-80.2-3.8l-24.4,114.6l125,0.7l12.7-65.6C426.4,215.6,410.7,193.8,388.9,192.8z"/>
					<g>
						<line class="st7" x1="385.6" y1="175.7" x2="381.8" y2="191.7"/>
						<line class="st7" x1="352" y1="175.7" x2="348.2" y2="191.7"/>
						<g>
							<path class="st6" d="M396.1,178.3h-66l14.1-43.9h59.9c5,0,8.6,5.3,6.9,10.4l-9.4,29.3C400.8,176.6,398.6,178.3,396.1,178.3z"
								/>
						</g>
					</g>
					<g>
						<g>
							<g>
								<g>
									<path class="st8" d="M257.8,249.7c-10.7-7.6-29.9-20.7-29.9-20.7s-33.8-23.5-33.2-25.6c0.6-2,12.1,3.3,12.1,3.3
										c-0.9-1.9-11.3-8.5-10.9-9.7c0.4-1.2,13.7,6.6,14.3,6c0.6-0.6-13.2-8.6-12.4-10.2c0.8-1.6,14.6,6.4,15.4,6
										c0.8-0.4-13-9.2-11.3-10.6c1.7-1.4,20.8,14.1,22.6,13.8s-4.3-9.5-4-13.6c0.3-4.1,16,20.8,16,20.8
										c3.6,3.4,31.9,16.4,31.9,16.4L257.8,249.7z"/>
									<path class="st9" d="M222.5,201.2l5,9.9c0,0-2.3-10.1-1.7-10.9L222.5,201.2z"/>
									<path class="st8" d="M284.8,227c0,0,35.5-81,57.7-50.1c23.8,33.1-19,63.3-40.8,88c-5.8,6.6-15.4,7.2-21.9,1.4l-51.4-36.9
										l8.7-19.1L284.8,227z"/>
									<path class="st10" d="M323.1,242.9c-9.5-11.5-22.5-26.8-32.9-37.4c12-21.9,37-49.8,52.3-28.6
										C359.6,200.7,342.3,223.1,323.1,242.9z"/>
								</g>
								<g>
									<path class="st10" d="M396.8,201.1c1.2-20.4-31.4-36.9-31.4-36.9l-12.2-8.3l-0.7,2.2l-20.3,20.3l-3.4-9.4l0.2-3.5l-3.3,3.7
										c-2.4,0.4-12.4,15-15,21.8c-4,10.3-5.2,23.9-5.6,32c-9,79.3-9.7,81.7-9.7,81.7h90.4C385.8,304.8,389.2,327.9,396.8,201.1z"
										/>
									<path class="st11" d="M378.2,171.8c-0.9-0.7-59.6,133-59.6,133h72.8c0,0,6.2-58.5,5.3-105.7
										C396.6,199.1,395.5,184.1,378.2,171.8z"/>
								</g>
								<g>
									<g>
										<path class="st12" d="M312.1,112.9c-1.7-3.7-1.1-9.7-1.1-9.7s-14.4-5.3-11-14.1c3.4-8.8,20.4-3.9,20.4-3.9
											s-6.4-10.5,6.2-2c5,3.4,5.9,4.2,9.7,2.4c3.9-1.9,10.1,0.5,11.9,4c1.1,2.2,0.4,4.1,1.9,3.9c5.6-0.6,8.3,5.7,4.4,19.1
											c0,0,1.9,6.8-1.8,17.5c-1.4,3.8-6.1,5.1-6.1,5.1"/>
										<path class="st8" d="M312.1,104.3c0,0-4.3,31,4.5,43c4.5,4.7,9.9,2.6,13.3,2.5c0.1-1.3-0.5,10.8-1.1,21.6c0,0,0,0.1,0,0.1
											c0.2,1.9,2.5,2.5,5.3,2.3c4.2-0.3,8.1-2.4,11-5.7l8.4-9.6l-4.7-22.5c0,0-0.9-5.1-0.7-6.7c3.4-0.5,5.8-6,4.3-9.6
											c-1.4-3.5-6.6-3.7-7.4-0.4c-0.8,3.3-3.4,3.2-3.7,0.5c-0.2-1.6,0.9-14.5-7.8-16.1c-5.2,0.4-6.4,4.3-9.1,4.4
											c-2.7,0.2-5.1-5.9-6.4-4.2C313.7,108.8,312.1,104.3,312.1,104.3z"/>
										<path class="st9" d="M350.8,122.8c-1.8-6.6-5.8-1.2-5.8-1.2L350.8,122.8z"/>
										<polygon class="st9" points="328.9,149.8 334.1,149.3 329.9,160.8 										"/>
										<g>
											<path class="st9" d="M316.7,126.1c0,0-2.4,6.6-2.1,6.6c0.9-0.1,2.9,0,2.9,0L316.7,126.1z"/>
											
												<ellipse transform="matrix(0.9998 -2.216694e-02 2.216694e-02 0.9998 -2.7036 6.9848)" class="st12" cx="313.7" cy="125.4" rx="0.8" ry="1.8"/>
											<path class="st12" d="M320.6,125c0,1-0.3,1.8-0.8,1.8c-0.4,0-0.8-0.8-0.8-1.8c0-1,0.3-1.8,0.8-1.8S320.5,124,320.6,125z"
												/>
											<path class="st12" d="M324.7,118.7c1.1,0.1,1.1-3.9-4.2-3.4c-1.5,0.2-2.8,1.7-2.1,3C318.9,119.1,320.9,118.3,324.7,118.7
												z"/>
											<path class="st12" d="M311.2,119.4c-1,0.4-2.6-2.7,0.4-3.8c2.1-0.8,3.2,1.4,2.5,2.8C313.7,119.2,312.8,118.8,311.2,119.4
												z"/>
											<path class="st5" d="M314.2,135.2l7.2-0.6c0,0-0.8,3.7-3.9,4C315,138.8,314.2,135.2,314.2,135.2z"/>
										</g>
									</g>
								</g>
								<path class="st8" d="M360.2,294.9c-12.8-1.6-35.8-4.4-35.8-4.4s-46,1-46.3-1.1c-0.3-2.1,27.9-18.1,27.9-18.1
									c4.6,1.2,53.2-3,53.2-3L360.2,294.9z"/>
								<g>
									<path class="st8" d="M364.7,197.6c-0.3-6.7-9-29.6,3.3-32.3c12.9-2.9,51.1,39,42.3,109c-2,15.9-10.6,29-36.2,24l-48.5-7.7
										l1.5-20l47-11.6C374,259.1,365.6,217.6,364.7,197.6z"/>
								</g>
								<g>
									<path class="st10" d="M360.3,242.3c-2-20-3.4-33.4-3.9-44.1c-0.3-6.7-0.7-30.1,11.6-32.8c9.4-2.1,35,23.9,43.3,62.8
										C397.4,233.5,374.4,237.4,360.3,242.3z"/>
								</g>
							</g>
						</g>
					</g>
				</g>
				<g>
					<g>
						<g>
							<g>
								<path class="st13" d="M320.7,129h4c1.7,0,3.1-1.5,3.1-3.4v-4c0-1.9-1.4-3.4-3.1-3.4h-4c-1.7,0-3.1,1.5-3.1,3.4v4
									C317.5,127.5,318.9,129,320.7,129z"/>
								<path class="st13" d="M325.9,128.8c-0.5-0.9-1.1-1.8-1.6-2.8c-1.3-2.6-2.6-5.2-3.9-7.8h4.6c1.5,0,2.8,1.7,2.8,3.8v3.1
									C327.8,126.9,327,128.3,325.9,128.8z"/>
							</g>
							<g>
								<path class="st14" d="M320.7,129h4c1.7,0,3.1-1.5,3.1-3.4v-4c0-1.9-1.4-3.4-3.1-3.4h-4c-1.7,0-3.1,1.5-3.1,3.4v4
									C317.5,127.5,318.9,129,320.7,129z"/>
							</g>
						</g>
						<g>
							<g>
								<path class="st13" d="M310.7,128.9h2.1c1.3,0,2.4-1.2,2.4-2.6v-5.2c0-1.4-1.1-2.6-2.4-2.6h-2.1c-1.3,0-2.4,1.2-2.4,2.6v5.2
									C308.3,127.7,309.4,128.9,310.7,128.9z"/>
								<path class="st13" d="M314.4,128.3c-1.6-3.2-3.1-6.4-4.7-9.6c0.2-0.1,0.5-0.2,0.7-0.2h2.7c1.2,0,2.1,1.3,2.1,3v4.5
									C315.2,126.9,314.9,127.7,314.4,128.3z"/>
							</g>
							<path class="st15" d="M310.7,128.9h2.1c1.3,0,2.4-1.2,2.4-2.6v-5.2c0-1.4-1.1-2.6-2.4-2.6h-2.1c-1.3,0-2.4,1.2-2.4,2.6v5.2
								C308.3,127.7,309.4,128.9,310.7,128.9z"/>
						</g>
						<line class="st14" x1="317.5" y1="124.6" x2="315.4" y2="124.6"/>
					</g>
					<line class="st14" x1="343.1" y1="120.8" x2="327.9" y2="121.1"/>
				</g>
			</g>
		</g>
		<g>
			<g>
				<rect x="253.8" y="287.7" class="st16" width="65.5" height="8.2"/>
				<path class="st17" d="M272.6,287.7c3.3,2.7,6.5,5.4,9.7,8.2h-28.5v-8.2H272.6z"/>
				<polygon class="st16" points="171.9,295.9 275.1,295.9 250.2,219.6 147,219.6 				"/>
				<line class="st18" x1="273.3" y1="287.1" x2="169.6" y2="287.1"/>
				<path class="st5" d="M205,259.9c0-3.8,2.9-6.9,6.5-6.9s6.5,3.1,6.5,6.9c0,3.8-2.9,6.9-6.5,6.9C207.9,266.8,205,263.7,205,259.9z
					"/>
			</g>
		</g>
		<rect x="32.2" y="294.6" class="st19" width="421.2" height="11.9"/>
		<g>
			<g>
				<path class="st20" d="M406.4,295L406.4,295c8.1,0,14.6-7,14.6-15.6v-21.9h-29.2v21.9C391.9,288,398.4,295,406.4,295z"/>
				<path class="st20" d="M409.8,286.2c5.8-4.5,9.5-11,11.3-18.2v11.4c0,8.6-6.5,15.6-14.6,15.6l0,0c-3.8,0-7.3-1.6-9.9-4.2
					C401,290.9,405.6,289.4,409.8,286.2z"/>
				<ellipse class="st21" cx="390.9" cy="273.4" rx="11" ry="11.8"/>
			</g>
			<g class="st22">
				<g>
					<path class="st5" d="M407.8,253.3c2-2.8,3.8-5.9,5.3-9c1-2.1,1.8-4.4,1.9-6.7c0.1-2.4-0.8-4.9-2.6-6.2
						c-2.7-1.9-6.7-0.4-8.5,2.6c-1.8,3-1.7,6.8-0.8,10.2s2.5,6.5,3.8,9.7"/>
				</g>
				<g>
					<path class="st5" d="M402.4,254c-0.5-1.2-1.1-2.4-2.2-3c-1-0.6-2.7-0.4-3.1,0.8c-0.4,1.1,0.4,2.2,1.3,2.7s2.1,0.4,3.1,0.3"/>
				</g>
			</g>
		</g>
		<g>
			<g>
				<g>
					<g>
						<g>
							<path class="st6" d="M177.2,178.5l18-32.9c0.1-0.2,0.4-0.1,0.4,0.1v28c0,0.1,0,0.2-0.1,0.2c-0.7,0.4-1,1.4-0.4,2.4
								c0,0,0,0,0.1,0.1c1.1,0.9,2.4,0,2.4-1.1c0-0.6-0.3-1.1-0.7-1.3c-0.1,0-0.1-0.1-0.1-0.2v-28c0-0.2,0.3-0.3,0.4-0.1l18.1,32.2
								c0.1,0.1,0.1,0.2,0,0.3l-8.9,20.3h-20.1l-8.9-19.6C177.2,178.7,177.2,178.6,177.2,178.5z"/>
						</g>
						<path class="st6" d="M187.1,208.6h18.1c0.6,0,1.2-0.6,1.2-1.2v-7.9c0-0.1-0.1-0.2-0.2-0.2h-20c-0.1,0-0.2,0.1-0.2,0.2v7.9
							C185.9,208.1,186.5,208.6,187.1,208.6z"/>
					</g>
					<g>
						<g>
							<g>
								<path class="st23" d="M223.8,109.2c0,16.4-12.4,29.7-27.7,29.7"/>
								<path class="st23" d="M168.3,169c0-16.4,12.4-29.7,27.7-29.7"/>
							</g>
							<g>
								<rect x="221.8" y="107.4" class="st6" width="4.1" height="4.4"/>
								<rect x="166.7" y="166.1" class="st6" width="4.1" height="4.4"/>
							</g>
						</g>
						<g>
							<line class="st23" x1="232.4" y1="139.1" x2="159.1" y2="139.1"/>
							<g>
								<rect x="194.3" y="137.3" class="st6" width="4.1" height="4.4"/>
								<rect x="230.4" y="137.3" class="st6" width="4.1" height="4.4"/>
								<rect x="157.9" y="137.3" class="st6" width="4.1" height="4.4"/>
							</g>
						</g>
					</g>
				</g>
			</g>
			<g>
				<path class="st24" d="M405.1,104.3l-32.7,0.4c-1.2,0-2.2,0.7-2.7,1.9l-3,6.9c-0.2,0.4-0.7,0.3-0.7-0.2l-0.3-8.5l-0.3-34.2
					c0-3.3,2.5-6.1,5.6-6.1l33.8-0.4c3.1,0,5.7,2.6,5.7,6l0.3,28.1C410.7,101.5,408.2,104.2,405.1,104.3z"/>
				<path class="st16" d="M388.7,96.4l6.1-0.1c0.2,0,0.4-0.2,0.4-0.4l-0.1-11.4c0-0.2-0.2-0.4-0.4-0.4l-6.1,0.1
					c-0.2,0-0.4,0.2-0.4,0.4l0.1,11.4C388.3,96.2,388.5,96.4,388.7,96.4z"/>
				<path class="st20" d="M396.3,96.3l6.3-0.1c0.2,0,0.3-0.2,0.3-0.4l-0.1-6.7c0-0.2-0.1-0.3-0.3-0.3l-6.3,0.1
					c-0.2,0-0.3,0.2-0.3,0.4l0.1,6.7C396,96.1,396.2,96.3,396.3,96.3z"/>
				<path class="st10" d="M381,96.4l6.1-0.1c0.2,0,0.4-0.2,0.4-0.4l-0.2-18c0-0.2-0.2-0.4-0.4-0.4l-6.1,0.1c-0.2,0-0.4,0.2-0.4,0.4
					l0.2,18C380.6,96.3,380.8,96.4,381,96.4z"/>
				<path class="st6" d="M374.3,96.5l4.9-0.1c0.4,0,0.7-0.3,0.7-0.7l-0.2-23c0-0.4-0.3-0.7-0.7-0.7l-4.9,0.1c-0.4,0-0.7,0.3-0.7,0.7
					l0.2,23C373.6,96.2,373.9,96.5,374.3,96.5z"/>
			</g>
			<g>
				<g>
					<g>
						<ellipse class="st16" cx="105.3" cy="204.9" rx="16.4" ry="17.6"/>
						<ellipse class="st10" cx="128.6" cy="205.6" rx="16.4" ry="17.6"/>
						<ellipse class="st20" cx="116.5" cy="227" rx="16.4" ry="17.6"/>
					</g>
					<g>
						<g>
							<g>
								<polyline class="st25" points="66.7,250.2 66.7,252.3 68.7,252.3 								"/>
								<line class="st26" x1="72.6" y1="252.3" x2="164.2" y2="252.3"/>
								<polyline class="st25" points="166.1,252.3 168.1,252.3 168.1,250.2 								"/>
								<line class="st27" x1="168.1" y1="246.2" x2="168.1" y2="184.4"/>
								<polyline class="st25" points="168.1,182.5 168.1,180.4 166.1,180.4 								"/>
								<line class="st26" x1="162.2" y1="180.4" x2="70.6" y2="180.4"/>
								<polyline class="st25" points="68.7,180.4 66.7,180.4 66.7,182.5 								"/>
								<line class="st27" x1="66.7" y1="186.4" x2="66.7" y2="248.2"/>
							</g>
						</g>
						<g>
							<g>
								<rect x="164.6" y="178.7" class="st28" width="4.7" height="5.1"/>
								<rect x="64.6" y="178.7" class="st28" width="4.7" height="5.1"/>
							</g>
							<g>
								<rect x="164.6" y="248.2" class="st28" width="4.7" height="5.1"/>
								<rect x="64.6" y="248.2" class="st28" width="4.7" height="5.1"/>
							</g>
						</g>
					</g>
				</g>
				<path class="st6" d="M92.3,257l3.2,9.8c0.3,0.9,1.6,0.9,1.8,0l6.3-21.7c0.2-0.8-0.5-1.6-1.2-1.3l-20.2,7.3c-0.9,0.3-0.9,1.7,0,2
					l9.6,3.2C92,256.5,92.2,256.7,92.3,257z"/>
			</g>
		</g>
		<g>
			<g>
				<path class="st10" d="M118.3,122.6c0-3.6,2.7-6.5,6-6.5c3.3,0,6.1,2.9,6.1,6.5c0,3.6-2.7,6.5-6,6.5
					C121.1,129.1,118.3,126.2,118.3,122.6z"/>
				
					<rect x="98.9" y="107.3" transform="matrix(1 -1.197504e-03 1.197504e-03 1 -0.1379 0.1338)" class="st29" width="25.5" height="15.7"/>
			</g>
			<g>
				<path class="st20" d="M417.2,192.7c0-2.7,2-4.9,4.5-4.9c2.5,0,4.5,2.2,4.5,4.9c0,2.7-2,4.9-4.5,4.9S417.2,195.4,417.2,192.7z"/>
				
					<rect x="420.4" y="155.8" transform="matrix(1 -1.197928e-03 1.197928e-03 1 -0.2084 0.5142)" class="st29" width="17.5" height="36.8"/>
			</g>
		</g>
	</g>
</g>
<g id="Shadows">
	<g id="Shadow--inject-214">
		<ellipse id="path--inject-214" class="st30" cx="250" cy="351.3" rx="193.9" ry="11.3"/>
	</g>
</g>
</svg>
