<svg xmlns="http://www.w3.org/2000/svg" viewBox="0 0 500 362.66"><defs><style>.cls-1{fill:#e6e6e6;}.cls-2{fill:#e0e0e0;}.cls-3{fill:#ebebeb;}.cls-4{fill:#fafafa;}.cls-5{fill:#f5f5f5;}.cls-6{fill:#f0f0f0;}.cls-26,.cls-7{fill:#263238;}.cls-13,.cls-14,.cls-16,.cls-17,.cls-25,.cls-8,.cls-9{fill:#fff;}.cls-12,.cls-16,.cls-17,.cls-8{opacity:0.1;}.cls-15,.cls-22,.cls-23,.cls-9{opacity:0.2;}.cls-10{fill:#407bff;}.cls-11,.cls-24{opacity:0.3;}.cls-13,.cls-26{opacity:0.4;}.cls-16,.cls-23{isolation:isolate;}.cls-17,.cls-21{stroke:#263238;stroke-linecap:round;stroke-linejoin:round;}.cls-18{opacity:0.5;}.cls-19{fill:#a02724;}.cls-20{fill:#ff8b7b;}.cls-21{fill:none;}.cls-25{opacity:0.8;}</style></defs><g id="Background_Complete" data-name="Background Complete"><path class="cls-1" d="M238.4,341.53H45.31a5.72,5.72,0,0,1-5.71-5.71V64.39a5.72,5.72,0,0,1,5.71-5.66H238.4a5.71,5.71,0,0,1,5.7,5.71h0V335.82A5.71,5.71,0,0,1,238.4,341.53ZM45.31,58.93a5.47,5.47,0,0,0-5.46,5.46V335.82a5.47,5.47,0,0,0,5.46,5.46H238.4a5.46,5.46,0,0,0,5.45-5.46V64.39a5.46,5.46,0,0,0-5.45-5.46Z" transform="translate(0 -58.73)"/><path class="cls-1" d="M454.7,341.53H261.6a5.71,5.71,0,0,1-5.7-5.71V64.39a5.71,5.71,0,0,1,5.7-5.66H454.7a5.71,5.71,0,0,1,5.7,5.66V335.82A5.71,5.71,0,0,1,454.7,341.53ZM261.6,58.93a5.46,5.46,0,0,0-5.45,5.46V335.82a5.46,5.46,0,0,0,5.45,5.46H454.7a5.48,5.48,0,0,0,5.47-5.46V64.39a5.48,5.48,0,0,0-5.47-5.46Z" transform="translate(0 -58.73)"/><rect class="cls-2" x="53.79" y="333.48" width="41.21" height="0.25"/><rect class="cls-2" x="137.67" y="331.48" width="41.33" height="0.25"/><rect class="cls-2" x="222.78" y="331.48" width="10" height="0.25"/><rect class="cls-2" x="86.58" y="340.02" width="46.25" height="0.25"/><rect class="cls-2" x="271.2" y="333.35" width="21.6" height="0.25"/><rect class="cls-2" x="301.7" y="333.35" width="27.93" height="0.25"/><rect class="cls-2" x="401.89" y="337.58" width="62.44" height="0.25"/><rect class="cls-2" y="323.67" width="500" height="0.25"/><rect class="cls-2" x="81.49" y="41.59" width="1.8" height="140.37"/><rect class="cls-2" x="193.54" y="41.59" width="1.8" height="140.37"/><polygon class="cls-3" points="202.39 50.42 74.44 50.42 71.74 44.12 205.09 44.12 202.39 50.42"/><polygon class="cls-3" points="202.39 59.07 74.44 59.07 71.74 52.77 205.09 52.77 202.39 59.07"/><polygon class="cls-3" points="202.39 67.72 74.44 67.72 71.74 61.42 205.09 61.42 202.39 67.72"/><polygon class="cls-3" points="202.39 76.37 74.44 76.37 71.74 70.07 205.09 70.07 202.39 76.37"/><polygon class="cls-3" points="202.39 85.02 74.44 85.02 71.74 78.72 205.09 78.72 202.39 85.02"/><polygon class="cls-3" points="202.39 93.67 74.44 93.67 71.74 87.37 205.09 87.37 202.39 93.67"/><polygon class="cls-3" points="202.39 102.32 74.44 102.32 71.74 96.02 205.09 96.02 202.39 102.32"/><polygon class="cls-3" points="202.39 110.97 74.44 110.97 71.74 104.67 205.09 104.67 202.39 110.97"/><polygon class="cls-3" points="202.39 119.61 74.44 119.61 71.74 113.31 205.09 113.31 202.39 119.61"/><polygon class="cls-3" points="202.39 128.26 74.44 128.26 71.74 121.96 205.09 121.96 202.39 128.26"/><polygon class="cls-3" points="202.39 136.91 74.44 136.91 71.74 130.61 205.09 130.61 202.39 136.91"/><polygon class="cls-3" points="202.39 145.56 74.44 145.56 71.74 139.26 205.09 139.26 202.39 145.56"/><polygon class="cls-3" points="202.39 154.21 74.44 154.21 71.74 147.91 205.09 147.91 202.39 154.21"/><polygon class="cls-3" points="202.39 162.86 74.44 162.86 71.74 156.56 205.09 156.56 202.39 162.86"/><polygon class="cls-3" points="202.39 171.51 74.44 171.51 71.74 165.21 205.09 165.21 202.39 171.51"/><polygon class="cls-3" points="202.39 180.16 74.44 180.16 71.74 173.86 205.09 173.86 202.39 180.16"/><rect class="cls-2" x="71.74" y="180.16" width="133.35" height="3.6"/><rect class="cls-2" x="67.09" y="36.23" width="142.65" height="8.4"/><path class="cls-2" d="M68.56,179.52h0a1.45,1.45,0,0,1-1.45-1.45v-49a1.45,1.45,0,0,1,1.45-1.45h0A1.45,1.45,0,0,1,70,129.07v49A1.45,1.45,0,0,1,68.56,179.52Z" transform="translate(0 -58.73)"/><rect class="cls-2" x="68.03" y="42.94" width="1.05" height="29.1"/><rect class="cls-1" x="362.05" y="231.73" width="75.81" height="81.59"/><rect class="cls-1" x="439.91" y="225.66" width="9.53" height="98.25"/><rect class="cls-4" x="374.12" y="238.16" width="6.21" height="30.49"/><rect class="cls-5" x="399.88" y="238.16" width="6.21" height="30.49"/><rect class="cls-5" x="380.33" y="240.3" width="6.21" height="28.35"/><rect class="cls-4" x="393.66" y="240.3" width="6.21" height="28.35"/><rect class="cls-3" x="389.65" y="238.16" width="4.01" height="30.49"/><rect class="cls-4" x="386.55" y="240.3" width="3.11" height="28.35"/><rect class="cls-3" x="406.09" y="238.16" width="6.21" height="30.49"/><rect class="cls-1" x="412.3" y="240.3" width="6.21" height="28.35"/><rect class="cls-1" x="425.63" y="240.3" width="6.21" height="28.35"/><rect class="cls-4" x="421.62" y="238.16" width="4.01" height="30.49"/><rect class="cls-3" x="418.51" y="240.3" width="3.11" height="28.35"/><rect class="cls-4" x="431.84" y="238.88" width="3.11" height="29.77"/><rect class="cls-4" x="428.74" y="337.75" width="6.21" height="30.49" transform="translate(863.68 647.27) rotate(180)"/><rect class="cls-4" x="402.98" y="337.75" width="6.21" height="30.49" transform="translate(812.17 647.27) rotate(180)"/><rect class="cls-6" x="422.52" y="339.9" width="6.21" height="28.35" transform="translate(851.26 649.41) rotate(180)"/><rect class="cls-3" x="409.19" y="339.9" width="6.21" height="28.35" transform="translate(824.6 649.41) rotate(180)"/><rect class="cls-4" x="415.4" y="337.75" width="4.01" height="30.49" transform="translate(834.82 647.27) rotate(180)"/><rect class="cls-5" x="419.42" y="339.9" width="3.11" height="28.35" transform="translate(841.94 649.41) rotate(180)"/><rect class="cls-3" x="396.77" y="337.75" width="6.21" height="30.49" transform="translate(799.75 647.27) rotate(180)"/><rect class="cls-5" x="390.56" y="339.9" width="6.21" height="28.35" transform="translate(787.33 649.41) rotate(180)"/><rect class="cls-1" x="377.23" y="339.9" width="6.21" height="28.35" transform="translate(760.67 649.41) rotate(180)"/><rect class="cls-4" x="383.44" y="337.75" width="4.01" height="30.49" transform="translate(770.89 647.27) rotate(180)"/><rect class="cls-4" x="370.11" y="337.75" width="4.01" height="30.49" transform="translate(744.23 647.27) rotate(180)"/><rect class="cls-3" x="387.45" y="339.9" width="3.11" height="28.35" transform="translate(778.01 649.41) rotate(180)"/><rect class="cls-6" x="374.12" y="338.48" width="3.11" height="29.77" transform="translate(751.35 647.99) rotate(180)"/><path class="cls-6" d="M437.48,284.39H359.65v92.75h75.29v5.51H440V284.39Zm-2.54,83.86H364.45V332.49h70.49Zm0-40.84H364.45V293.29h70.49Z" transform="translate(0 -58.73)"/><rect class="cls-1" x="286.12" y="290.46" width="75.81" height="81.59" transform="translate(648.06 603.79) rotate(180)"/><rect class="cls-1" x="289.04" y="376.14" width="9.53" height="6.5" transform="translate(587.61 700.06) rotate(180)"/><rect class="cls-4" x="353.17" y="296.89" width="6.21" height="30.49" transform="translate(712.54 565.54) rotate(180)"/><rect class="cls-5" x="327.41" y="296.89" width="6.21" height="30.49" transform="translate(661.04 565.54) rotate(180)"/><rect class="cls-5" x="346.95" y="299.03" width="6.21" height="28.35" transform="translate(700.12 567.68) rotate(180)"/><rect class="cls-4" x="333.62" y="299.03" width="6.21" height="28.35" transform="translate(673.46 567.68) rotate(180)"/><rect class="cls-3" x="339.83" y="296.89" width="4.01" height="30.49" transform="translate(683.68 565.54) rotate(180)"/><rect class="cls-4" x="343.85" y="299.03" width="3.11" height="28.35" transform="translate(690.8 567.68) rotate(180)"/><rect class="cls-3" x="325.3" y="296.89" width="6.21" height="30.49" transform="translate(656.8 565.54) rotate(180)"/><rect class="cls-1" x="319.08" y="299.03" width="6.21" height="28.35" transform="translate(644.38 567.68) rotate(180)"/><rect class="cls-1" x="305.75" y="299.03" width="6.21" height="28.35" transform="translate(617.72 567.68) rotate(180)"/><rect class="cls-4" x="311.96" y="296.89" width="4.01" height="30.49" transform="translate(627.94 565.54) rotate(180)"/><rect class="cls-3" x="315.98" y="299.03" width="3.11" height="28.35" transform="translate(635.06 567.68) rotate(180)"/><rect class="cls-5" x="302.65" y="297.61" width="3.11" height="29.77" transform="translate(608.4 566.26) rotate(180)"/><rect class="cls-4" x="299.73" y="279.02" width="6.21" height="30.49"/><rect class="cls-4" x="325.48" y="279.02" width="6.21" height="30.49"/><rect class="cls-5" x="305.94" y="281.17" width="6.21" height="28.35"/><rect class="cls-3" x="319.27" y="281.17" width="6.21" height="28.35"/><rect class="cls-4" x="315.26" y="279.02" width="4.01" height="30.49"/><rect class="cls-5" x="312.15" y="281.17" width="3.11" height="28.35"/><rect class="cls-3" x="327.6" y="279.02" width="6.21" height="30.49"/><rect class="cls-5" x="333.81" y="281.17" width="6.21" height="28.35"/><rect class="cls-1" x="347.14" y="281.17" width="6.21" height="28.35"/><rect class="cls-4" x="343.13" y="279.02" width="4.01" height="30.49"/><rect class="cls-4" x="355.64" y="279.02" width="4.01" height="30.49"/><rect class="cls-3" x="340.02" y="281.17" width="3.11" height="28.35"/><rect class="cls-3" x="353.35" y="279.75" width="3.11" height="29.77"/><path class="cls-6" d="M284,284.39v98.26h5.08v-5.51h75.28V284.39H284Zm5.08,48.1h70.49v35.76H289.05Zm0-39.2h70.49v34.12H289.05Z" transform="translate(0 -58.73)"/><path class="cls-3" d="M93.65,350.14s-7.27-34.39,6-53-12-.22-14.88,17.22c0,0-4.35-31.18,8.51-53.12S82.06,257.29,80,279.9c0,0-3.94-27.82,2-43.46s-4.37-5.58-8.32,4.22,1.23,34.07,1.23,34.07-10.31-44.87-20.07-41.3,14.59,33,18,48.27c0,0-11.51-20.59-20.24-16.3s13.53,6.41,23.71,37.1l3.58,14.39S69.25,296.58,62.33,303s20.53,17.47,26.91,48.25Z" transform="translate(0 -58.73)"/><path class="cls-3" d="M68.34,301.92h50a0,0,0,0,1,0,0v11a11,11,0,0,1-11,11h-28a11,11,0,0,1-11-11v-11A0,0,0,0,1,68.34,301.92Z"/><rect class="cls-5" x="61.8" y="289.22" width="63.04" height="19.7" rx="4.21"/><path class="cls-5" d="M92.23,352.12s-1.53-43.36-23-61.73,14.28-3.82,23,16.2c0,0-4.08-38.65-26-61.09s12.24-8,21.43,18.43c0,0-3.58-34.5-15.31-51.47s3.57-8,11.22,2.58,8.68,41.17,8.68,41.17-1-56.82,11.73-55.45-7.65,43.84-7.14,63.17c0,0,7.65-28.09,19.39-25.56s-14.29,11.72-17.35,51.51v18.3s6.63-27.48,16.84-21.87-19.39,27-17.86,65.81Z" transform="translate(0 -58.73)"/><rect class="cls-3" x="367.02" y="37.22" width="59.5" height="88.69"/><rect class="cls-5" x="371.13" y="43.34" width="51.29" height="76.45"/><circle class="cls-2" cx="399.02" cy="127.56" r="10.29" transform="translate(183.2 427.87) rotate(-76.72)"/><polygon class="cls-3" points="388.73 108.83 403.78 90.83 409.31 108.83 388.73 108.83"/><path class="cls-3" d="M381.48,114.77c-7.2,11.72-2,26.28,6.19,35.85,1.26,1.47,3.37-.66,2.12-2.12-7.3-8.54-12.17-21.7-5.72-32.22,1-1.65-1.58-3.16-2.59-1.51Z" transform="translate(0 -58.73)"/><polygon class="cls-3" points="411.78 48.2 406.28 53.83 411.78 58.54 416.78 53.37 411.78 48.2"/><polygon class="cls-2" points="411.03 211.28 384.67 211.28 391.24 200.78 407.11 200.78 407.11 203.78 392.9 203.78 390.09 208.28 411.03 208.28 411.03 211.28"/><rect class="cls-2" x="401.94" y="260.75" width="3" height="6.04" transform="translate(-35.38 5.6) rotate(-8.74)"/><rect class="cls-3" x="408.77" y="263.96" width="7.33" height="3" transform="translate(-17.45 442.9) rotate(-61.55)"/><path class="cls-2" d="M428.74,264.22l-16.18.5a2,2,0,0,1-2.16-1.8v-1a2,2,0,0,1,2.16-1.79l16.18.5a1.94,1.94,0,0,1,2,1.79h0A1.94,1.94,0,0,1,428.74,264.22Z" transform="translate(0 -58.73)"/><polygon class="cls-1" points="378.5 221.06 386.43 216.96 386.43 214.63 378.5 210.53 378.5 221.06"/><rect class="cls-2" x="377.4" y="210.53" width="1.1" height="10.53"/><polygon class="cls-1" points="420.75 224.04 408.34 217.62 408.34 213.97 420.75 207.55 420.75 224.04"/><rect class="cls-2" x="420.75" y="207.55" width="1.72" height="16.5"/><path class="cls-3" d="M412.45,284.2H389.87a8,8,0,0,1-8-8v-2a8,8,0,0,1,8-8h22.58Z" transform="translate(0 -58.73)"/></g><g id="Shadows"><g id="Shadow--inject-214"><ellipse id="path--inject-214" class="cls-5" cx="250" cy="351.34" rx="193.89" ry="11.32"/></g></g><g id="Desk"><path class="cls-7" d="M296.51,290.69h-6.24L280.28,409a2.27,2.27,0,0,0,2.26,2.46h0a2.27,2.27,0,0,0,2.25-2Z" transform="translate(0 -58.73)"/><path class="cls-8" d="M296.51,290.69h-6.24L280.28,409a2.27,2.27,0,0,0,2.26,2.46h0a2.27,2.27,0,0,0,2.25-2Z" transform="translate(0 -58.73)"/><path class="cls-7" d="M146.53,289.86h-6.25l-10,119.19a2.26,2.26,0,0,0,2.26,2.45h0a2.27,2.27,0,0,0,2.25-2Z" transform="translate(0 -58.73)"/><path class="cls-8" d="M146.53,289.86h-6.25l-10,119.19a2.26,2.26,0,0,0,2.26,2.45h0a2.27,2.27,0,0,0,2.25-2Z" transform="translate(0 -58.73)"/><path class="cls-7" d="M174.21,289.86h6.24l.18,119.55a2.27,2.27,0,0,1-2.27,2.27h0a2.28,2.28,0,0,1-2.27-2.24Z" transform="translate(0 -58.73)"/><path class="cls-9" d="M174.21,289.86h6.24l.18,119.55a2.27,2.27,0,0,1-2.27,2.27h0a2.28,2.28,0,0,1-2.27-2.24Z" transform="translate(0 -58.73)"/><path class="cls-7" d="M322.19,289.86h6.25l.18,119.55a2.27,2.27,0,0,1-2.27,2.27h0a2.28,2.28,0,0,1-2.27-2.24Z" transform="translate(0 -58.73)"/><path class="cls-9" d="M328.44,289.86l.18,119.55a2.27,2.27,0,0,1-2.27,2.27h0a2.28,2.28,0,0,1-2.27-2.24l-1.89-119.58Z" transform="translate(0 -58.73)"/><polygon class="cls-10" points="138.41 253.54 328.3 252.13 328.3 231.13 140.28 231.13 138.41 253.54"/><polygon class="cls-11" points="174.21 231.29 174.56 253.27 138.41 253.54 140.28 231.13 174.21 231.29"/><path class="cls-7" d="M335.63,284.82h0c0-2.82-1.06-5.11-2.36-5.12H137.45c-1.3,0-2.35,2.3-2.36,5.12h0c0,2.83,1.06,5.12,2.36,5.13H333.27C334.57,289.94,335.62,287.65,335.63,284.82Z" transform="translate(0 -58.73)"/><path class="cls-8" d="M335.63,284.82h0c0-2.82-1.06-5.11-2.36-5.12H137.45c-1.3,0-2.35,2.3-2.36,5.12h0c0,2.83,1.06,5.12,2.36,5.13H333.27C334.57,289.94,335.62,287.65,335.63,284.82Z" transform="translate(0 -58.73)"/><path class="cls-11" d="M185.64,284.82h0c0-2.82-1-5.11-2.35-5.12H137.45c-1.3,0-2.35,2.3-2.36,5.12h0c0,2.83,1.06,5.12,2.36,5.13h45.84C184.59,289.94,185.64,287.65,185.64,284.82Z" transform="translate(0 -58.73)"/></g><g id="Device"><path class="cls-10" d="M285.28,280.22H264.71l.47-2.23c2.2-5.91,13.44-5.91,13.44-5.91,2.79.16,5.51,2.77,6.29,6.42Z" transform="translate(0 -58.73)"/><path class="cls-7" d="M228.2,276.92h20.66l2.46-21.6H232.56Z" transform="translate(0 -58.73)"/><path class="cls-7" d="M224.55,279.66h1v.25h35v-3H228.2l4.36-21.6h18.76l1-9.16a2.34,2.34,0,0,0-2.34-2.24H233.94a2.37,2.37,0,0,0-2.35,2.24Z" transform="translate(0 -58.73)"/><polygon class="cls-7" points="228.2 218.19 248.86 218.19 251.13 198.29 251.32 196.59 232.56 196.59 228.2 218.19"/><polygon class="cls-12" points="250.46 203.78 251.32 196.59 229.67 196.59 228.16 203.78 250.46 203.78"/><path class="cls-7" d="M261,277.55h2.46a.44.44,0,0,0,.46-.42v-2.37a.44.44,0,0,0-.46-.43H261.7a.47.47,0,0,0-.45.32l-.69,2.37A.43.43,0,0,0,261,277.55Z" transform="translate(0 -58.73)"/><path class="cls-7" d="M257.62,277.55h2.46a.45.45,0,0,0,.46-.42v-2.37a.45.45,0,0,0-.46-.43h-1.77a.47.47,0,0,0-.45.32l-.69,2.37A.43.43,0,0,0,257.62,277.55Z" transform="translate(0 -58.73)"/><path class="cls-7" d="M254.23,277.55h2.45a.45.45,0,0,0,.47-.42v-2.37a.45.45,0,0,0-.47-.43h-1.76a.46.46,0,0,0-.45.32l-.69,2.37A.43.43,0,0,0,254.23,277.55Z" transform="translate(0 -58.73)"/><path class="cls-7" d="M250.84,277.55h2.45a.45.45,0,0,0,.47-.42v-2.37a.45.45,0,0,0-.47-.43h-1.76a.46.46,0,0,0-.45.32l-.69,2.37A.43.43,0,0,0,250.84,277.55Z" transform="translate(0 -58.73)"/><path class="cls-7" d="M247.45,277.55h2.45a.45.45,0,0,0,.47-.42v-2.37a.45.45,0,0,0-.47-.43h-1.76a.46.46,0,0,0-.45.32L247,277A.43.43,0,0,0,247.45,277.55Z" transform="translate(0 -58.73)"/><path class="cls-7" d="M244.06,277.55h2.45a.45.45,0,0,0,.47-.42v-2.37a.45.45,0,0,0-.47-.43h-1.76a.46.46,0,0,0-.45.32l-.69,2.37A.43.43,0,0,0,244.06,277.55Z" transform="translate(0 -58.73)"/><path class="cls-7" d="M240.67,277.55h2.45a.45.45,0,0,0,.47-.42v-2.37a.45.45,0,0,0-.47-.43h-1.76a.46.46,0,0,0-.45.32l-.7,2.37A.44.44,0,0,0,240.67,277.55Z" transform="translate(0 -58.73)"/><path class="cls-7" d="M237.28,277.55h2.45a.45.45,0,0,0,.47-.42v-2.37a.45.45,0,0,0-.47-.43H238a.46.46,0,0,0-.45.32l-.7,2.37A.44.44,0,0,0,237.28,277.55Z" transform="translate(0 -58.73)"/><path class="cls-7" d="M233.89,277.55h2.45a.45.45,0,0,0,.47-.42v-2.37a.45.45,0,0,0-.47-.43h-1.76a.48.48,0,0,0-.46.32l-.69,2.37A.44.44,0,0,0,233.89,277.55Z" transform="translate(0 -58.73)"/><path class="cls-7" d="M230.49,277.55H233a.45.45,0,0,0,.47-.42v-2.37a.45.45,0,0,0-.47-.43h-1.76a.47.47,0,0,0-.46.32L230,277A.43.43,0,0,0,230.49,277.55Z" transform="translate(0 -58.73)"/><path class="cls-7" d="M227.1,277.55h2.46a.45.45,0,0,0,.47-.42v-2.37a.45.45,0,0,0-.47-.43H227.8a.47.47,0,0,0-.46.32l-.69,2.37A.43.43,0,0,0,227.1,277.55Z" transform="translate(0 -58.73)"/><path class="cls-7" d="M223.71,277.55h2.46a.45.45,0,0,0,.47-.42v-2.37a.45.45,0,0,0-.47-.43h-1.76a.47.47,0,0,0-.46.32l-.69,2.37A.43.43,0,0,0,223.71,277.55Z" transform="translate(0 -58.73)"/><path class="cls-7" d="M220.32,277.55h2.46a.45.45,0,0,0,.46-.42v-2.37a.45.45,0,0,0-.46-.43H221a.47.47,0,0,0-.45.32l-.69,2.37A.43.43,0,0,0,220.32,277.55Z" transform="translate(0 -58.73)"/><path class="cls-7" d="M216.93,277.55h2.46a.45.45,0,0,0,.46-.42v-2.37a.45.45,0,0,0-.46-.43h-1.77a.47.47,0,0,0-.45.32l-.69,2.37A.43.43,0,0,0,216.93,277.55Z" transform="translate(0 -58.73)"/><path class="cls-7" d="M213.54,277.55H216a.45.45,0,0,0,.47-.42v-2.37a.45.45,0,0,0-.47-.43h-1.76a.46.46,0,0,0-.45.32l-.69,2.37A.43.43,0,0,0,213.54,277.55Z" transform="translate(0 -58.73)"/><path class="cls-7" d="M211.07,277.81a2,2,0,0,0,2,1.86h50.77a2,2,0,0,0,2.05-1.86,1.76,1.76,0,0,0-.6-1.32,2.11,2.11,0,0,0-1.4-.54H213.11a2,2,0,0,0-.56.07A1.9,1.9,0,0,0,211.07,277.81Z" transform="translate(0 -58.73)"/><path class="cls-9" d="M211.07,277.81a2,2,0,0,0,2,1.86h50.77a2,2,0,0,0,2.05-1.86,1.76,1.76,0,0,0-.6-1.32,2.11,2.11,0,0,0-1.4-.54H213.11a2,2,0,0,0-.56.07A1.9,1.9,0,0,0,211.07,277.81Z" transform="translate(0 -58.73)"/><path class="cls-7" d="M211.07,277.81a2,2,0,0,0,2,1.86H230.3a1.89,1.89,0,0,0,1.42-1.78,1.76,1.76,0,0,0,0-.33,1.84,1.84,0,0,0-.57-1,2.32,2.32,0,0,0-.44-.31l-.24-.11a2.24,2.24,0,0,0-.78-.13H212.55A1.9,1.9,0,0,0,211.07,277.81Z" transform="translate(0 -58.73)"/><path class="cls-10" d="M196.46,194.65h5.19l5.83,63.27h-5.19a1.88,1.88,0,0,1-1.72-1.79l-5.5-59.69A1.51,1.51,0,0,1,196.46,194.65Z" transform="translate(0 -58.73)"/><path class="cls-11" d="M196.46,194.65h5.19l5.83,63.27h-5.19a1.88,1.88,0,0,1-1.72-1.79l-5.5-59.69A1.51,1.51,0,0,1,196.46,194.65Z" transform="translate(0 -58.73)"/><path class="cls-10" d="M204.48,257.92h77.76a1.51,1.51,0,0,0,1.39-1.79l-5.5-59.69a1.88,1.88,0,0,0-1.72-1.79H198.65a1.51,1.51,0,0,0-1.39,1.79l5.5,59.69A1.88,1.88,0,0,0,204.48,257.92Z" transform="translate(0 -58.73)"/><polygon class="cls-10" points="206.83 186.5 277.45 186.5 273.53 141.73 202.91 141.73 206.83 186.5"/><path class="cls-7" d="M207.8,248.73h69.59a3.23,3.23,0,0,0,3.27-3.57l-3.9-44.49a4,4,0,0,0-3.88-3.58h-69.6a3.23,3.23,0,0,0-3.26,3.58l3.89,44.49A4,4,0,0,0,207.8,248.73Z" transform="translate(0 -58.73)"/><polygon class="cls-10" points="206.83 186.5 277.45 186.5 273.53 141.73 202.91 141.73 206.83 186.5"/><polygon class="cls-13" points="206.83 186.5 277.45 186.5 273.53 141.73 202.91 141.73 206.83 186.5"/><path class="cls-10" d="M230,202.91l3.41,39H207.48l-3.42-39H230m.92-1H203l.1,1.09,3.41,39,.08.92h27.89l-.09-1.09-3.41-39-.08-.91Z" transform="translate(0 -58.73)"/><polygon class="cls-14" points="233.36 183.18 207.47 183.18 204.06 144.18 229.95 144.18 233.36 183.18"/><polygon class="cls-10" points="215.09 156.1 207.21 156.1 206.35 146.2 214.22 146.2 215.09 156.1"/><g class="cls-15"><path d="M207.28,204.93h-.93l.67,7.68h.25l0-.56h.67l0,.56h.26l-.67-7.68Zm-.32,4.12-.09-1.12h.67l.1,1.12Zm.7.25.1,1.12h-.68L207,209.3Zm-.82-1.62-.09-1.12h.67l.1,1.12Zm-.12-1.38-.1-1.11h.68l.1,1.11Zm.48,5.49-.09-1.11h.67l.1,1.11Z" transform="translate(0 -58.73)"/></g><g class="cls-15"><path d="M214,204.93H213l.67,7.68H214l-.05-.56h.68l0,.56h.26l-.67-7.68Zm-.31,4.12-.1-1.12h.68l.09,1.12Zm.7.25.09,1.12h-.67l-.1-1.12Zm-.82-1.62-.1-1.12h.68l.09,1.12Zm-.12-1.38-.1-1.11H214l.09,1.11Zm.48,5.49-.1-1.11h.68l.09,1.11Z" transform="translate(0 -58.73)"/></g><polygon class="cls-9" points="213.7 153.87 208.21 153.88 207.54 146.2 213.03 146.2 213.7 153.87"/><path class="cls-9" d="M212.9,208.87a2,2,0,0,1-2.07,2.27,2.53,2.53,0,0,1-2.48-2.27,2.05,2.05,0,0,1,2.08-2.27A2.53,2.53,0,0,1,212.9,208.87Z" transform="translate(0 -58.73)"/><polygon class="cls-14" points="209.91 148.95 211.91 150.27 210.14 151.58 209.91 148.95"/><polygon class="cls-10" points="216.17 168.5 208.3 168.5 207.43 158.6 215.3 158.6 216.17 168.5"/><g class="cls-15"><path d="M208.37,217.33h-.94l.67,7.68h.26l-.05-.56H209l0,.56h.25l-.67-7.68Zm-.32,4.12-.1-1.11h.68l.1,1.11Zm.7.26.1,1.12h-.68l-.1-1.12Zm-.82-1.63-.1-1.12h.68l.1,1.12Zm-.12-1.37-.1-1.12h.68l.1,1.12Zm.48,5.49-.1-1.12h.68l.1,1.12Z" transform="translate(0 -58.73)"/></g><g class="cls-15"><path d="M215.05,217.33h-.94l.68,7.68H215l0-.56h.68l.05.56H216l-.68-7.68Zm-.32,4.12-.1-1.11h.68l.1,1.11Zm.7.26.1,1.12h-.68l-.1-1.12Zm-.82-1.63-.1-1.12h.68l.1,1.12Zm-.12-1.37-.1-1.12h.68l.1,1.12Zm.48,5.49-.1-1.12h.68l.1,1.12Z" transform="translate(0 -58.73)"/></g><polygon class="cls-9" points="214.78 166.27 209.29 166.28 208.62 158.6 214.12 158.6 214.78 166.27"/><path class="cls-9" d="M214,221.27a2.05,2.05,0,0,1-2.08,2.28,2.54,2.54,0,0,1-2.47-2.28,2,2,0,0,1,2.07-2.27A2.54,2.54,0,0,1,214,221.27Z" transform="translate(0 -58.73)"/><polygon class="cls-14" points="211 161.36 213 162.67 211.23 163.98 211 161.36"/><polygon class="cls-10" points="225.41 156.1 217.54 156.1 216.67 146.2 224.55 146.2 225.41 156.1"/><g class="cls-15"><path d="M217.61,204.93h-.94l.68,7.68h.25l0-.56h.68l.05.56h.26l-.68-7.68Zm-.32,4.12-.1-1.12h.68l.1,1.12Zm.7.26.1,1.11h-.68l-.1-1.11Zm-.82-1.63-.1-1.12h.68l.1,1.12Zm-.12-1.38-.1-1.11h.68l.1,1.11Zm.48,5.5-.1-1.12h.68l.1,1.12Z" transform="translate(0 -58.73)"/></g><g class="cls-15"><path d="M224.29,204.93h-.93l.67,7.68h.25l0-.56h.67l.05.56h.26l-.67-7.68Zm-.32,4.12-.09-1.12h.67l.1,1.12Zm.7.26.1,1.11h-.68l-.09-1.11Zm-.82-1.63-.09-1.12h.67l.1,1.12Zm-.12-1.38-.09-1.11h.67l.1,1.11Zm.48,5.5-.09-1.12h.67l.1,1.12Z" transform="translate(0 -58.73)"/></g><polygon class="cls-9" points="224.03 153.87 218.53 153.88 217.86 146.2 223.36 146.2 224.03 153.87"/><path class="cls-9" d="M223.23,208.87a2,2,0,0,1-2.08,2.27,2.53,2.53,0,0,1-2.47-2.27,2.05,2.05,0,0,1,2.08-2.27A2.53,2.53,0,0,1,223.23,208.87Z" transform="translate(0 -58.73)"/><polygon class="cls-14" points="220.24 148.95 222.24 150.27 220.47 151.58 220.24 148.95"/><polygon class="cls-10" points="217.26 180.91 209.38 180.91 208.52 171.01 216.39 171.01 217.26 180.91"/><g class="cls-15"><path d="M209.45,229.74h-.93l.67,7.68h.25l0-.56h.67l.05.56h.26l-.67-7.68Zm-.32,4.12-.09-1.12h.67l.1,1.12Zm.7.25.1,1.12h-.68l-.09-1.12Zm-.82-1.63-.09-1.11h.67l.1,1.11Zm-.12-1.37L208.8,230h.67l.1,1.12Zm.48,5.49-.09-1.12H210l.1,1.12Z" transform="translate(0 -58.73)"/></g><g class="cls-15"><path d="M216.13,229.74h-.93l.67,7.68h.26l0-.56h.68l.05.56h.25l-.67-7.68Zm-.31,4.12-.1-1.12h.68l.09,1.12Zm.7.25.09,1.12h-.67l-.1-1.12Zm-.82-1.63-.1-1.11h.68l.09,1.11Zm-.12-1.37-.1-1.12h.68l.09,1.12Zm.48,5.49-.1-1.12h.68l.09,1.12Z" transform="translate(0 -58.73)"/></g><polygon class="cls-9" points="215.87 178.68 210.38 178.69 209.71 171.01 215.2 171.01 215.87 178.68"/><path class="cls-9" d="M215.07,233.68A2,2,0,0,1,213,236a2.54,2.54,0,0,1-2.48-2.27,2.05,2.05,0,0,1,2.08-2.27A2.53,2.53,0,0,1,215.07,233.68Z" transform="translate(0 -58.73)"/><polygon class="cls-14" points="212.08 173.76 214.09 175.07 212.31 176.39 212.08 173.76"/><polygon class="cls-16" points="227.15 138.38 213.35 189.98 218 189.98 231.64 138.38 227.15 138.38"/><polygon class="cls-16" points="234.31 138.38 220.52 189.98 229.72 189.98 243.36 138.38 234.31 138.38"/><polygon class="cls-7" points="275.73 176.86 230.86 176.86 228.54 150.36 273.41 150.36 275.73 176.86"/><path class="cls-14" d="M257.42,219.42a5,5,0,0,1-5.09,5.58,6.22,6.22,0,0,1-6.07-5.58,5,5,0,0,1,5.09-5.59A6.21,6.21,0,0,1,257.42,219.42Z" transform="translate(0 -58.73)"/><polygon class="cls-7" points="254.9 160.89 250.02 158.21 250.49 163.57 254.9 160.89"/><polygon class="cls-14" points="274.68 171.66 231 171.66 230.92 170.8 274.6 170.8 274.68 171.66"/><polygon class="cls-10" points="255.48 171.66 231 171.66 230.92 170.8 255.41 170.8 255.48 171.66"/><polygon class="cls-14" points="231.75 174.85 231.33 174.85 231.18 173.19 231.6 173.19 231.75 174.85"/><polygon class="cls-14" points="232.48 174.85 232.06 174.85 231.92 173.19 232.34 173.19 232.48 174.85"/><polygon class="cls-14" points="236.27 174.85 234.61 174.85 234.47 173.19 236.13 173.19 236.27 174.85"/><polygon class="cls-14" points="238.47 174.02 239.83 173.19 239.97 174.85 238.47 174.02"/><polygon class="cls-14" points="238.54 174.85 238.12 174.85 237.97 173.19 238.39 173.19 238.54 174.85"/><polygon class="cls-14" points="243.11 174.02 241.61 173.19 241.75 174.85 243.11 174.02"/><polygon class="cls-14" points="243.19 174.85 243.61 174.85 243.46 173.19 243.04 173.19 243.19 174.85"/><polygon class="cls-14" points="246.19 173.16 245.45 174.16 247.11 174.16 246.19 173.16"/><polygon class="cls-14" points="247.2 174.88 247.17 174.46 245.45 174.46 245.49 174.88 247.2 174.88"/><path class="cls-14" d="M275,233.71h-3.2l-.17-2h3.19Zm-2.95-.27h2.65l-.12-1.41h-2.65Z" transform="translate(0 -58.73)"/><polygon class="cls-14" points="269.44 174.98 268.79 174.98 268.74 174.41 269.01 174.39 269.04 174.71 269.44 174.71 269.44 174.98"/><polygon class="cls-14" points="270.87 174.98 270.22 174.98 270.22 174.71 270.58 174.71 270.55 174.41 270.82 174.39 270.87 174.98"/><polygon class="cls-14" points="270.49 173.65 270.45 173.3 270.08 173.3 270.08 173.03 270.7 173.03 270.75 173.63 270.49 173.65"/><polygon class="cls-14" points="268.68 173.65 268.62 173.03 269.29 173.03 269.29 173.3 268.92 173.3 268.95 173.63 268.68 173.65"/><polygon class="cls-17" points="236.92 150.36 241.99 150.36 235.98 176.86 230.85 176.86 236.92 150.36"/><polygon class="cls-17" points="262.14 176.86 268.21 150.36 273.29 150.36 267.28 176.86 262.14 176.86"/><polyline class="cls-17" points="273.69 153.58 269.75 170.8 269.55 171.66 269.21 173.16 268.89 174.54 268.36 176.86 269.68 176.86 270.52 173.16 270.86 171.66 271.05 170.8 274.04 157.63"/><polygon class="cls-10" points="273.41 150.36 228.54 150.36 228.33 147.96 273.2 147.96 273.41 150.36"/><path class="cls-14" d="M231.72,207.91a.67.67,0,0,1-.68.74.81.81,0,0,1-.8-.74.67.67,0,0,1,.67-.74A.83.83,0,0,1,231.72,207.91Z" transform="translate(0 -58.73)"/><path class="cls-14" d="M233.94,207.91a.67.67,0,0,1-.68.74.81.81,0,0,1-.8-.74.66.66,0,0,1,.67-.74A.83.83,0,0,1,233.94,207.91Z" transform="translate(0 -58.73)"/><path class="cls-14" d="M236.15,207.91a.66.66,0,0,1-.67.74.83.83,0,0,1-.81-.74.67.67,0,0,1,.68-.74A.81.81,0,0,1,236.15,207.91Z" transform="translate(0 -58.73)"/><polygon class="cls-10" points="189.12 220.97 163.47 220.97 156.78 144.38 182.42 144.38 189.12 220.97"/><polygon class="cls-11" points="189.12 220.97 163.47 220.97 156.78 144.38 182.42 144.38 189.12 220.97"/><polygon class="cls-10" points="191.64 220.97 165.99 220.97 159.29 144.38 184.94 144.38 191.64 220.97"/><path class="cls-18" d="M172.94,209a8.8,8.8,0,0,0-8.91,9.76,10.88,10.88,0,0,0,10.62,9.76,8.8,8.8,0,0,0,8.9-9.76A10.86,10.86,0,0,0,172.94,209Z" transform="translate(0 -58.73)"/><path class="cls-10" d="M171.15,219.42a3.08,3.08,0,0,0,3,2.78,2.5,2.5,0,0,0,2.53-2.78,3.1,3.1,0,0,0-3-2.77A2.5,2.5,0,0,0,171.15,219.42Z" transform="translate(0 -58.73)"/><path class="cls-18" d="M170.77,237.8a5.3,5.3,0,0,0,5.18,4.76,4.29,4.29,0,0,0,4.34-4.76,5.31,5.31,0,0,0-5.18-4.77h0A4.3,4.3,0,0,0,170.77,237.8Z" transform="translate(0 -58.73)"/><path class="cls-18" d="M172.46,250a4.57,4.57,0,0,0,4.47,4.12,3.71,3.71,0,0,0,3.76-4.12,4.59,4.59,0,0,0-4.48-4.12h0A3.71,3.71,0,0,0,172.46,250Z" transform="translate(0 -58.73)"/><path class="cls-18" d="M174.06,261.22a3.87,3.87,0,0,0,3.78,3.47,3.12,3.12,0,0,0,3.16-3.47,3.85,3.85,0,0,0-3.77-3.47h0A3.13,3.13,0,0,0,174.06,261.22Z" transform="translate(0 -58.73)"/><path class="cls-18" d="M175.49,270.52a3.15,3.15,0,0,0,3.08,2.82,2.54,2.54,0,0,0,2.58-2.82,3.14,3.14,0,0,0-3.08-2.83h0A2.55,2.55,0,0,0,175.49,270.52Z" transform="translate(0 -58.73)"/><polygon class="cls-10" points="319.67 220.87 294.02 220.87 287.32 144.28 312.97 144.28 319.67 220.87"/><polygon class="cls-11" points="319.67 220.87 294.02 220.87 287.32 144.28 312.97 144.28 319.67 220.87"/><polygon class="cls-10" points="322.19 220.87 296.54 220.87 289.84 144.28 315.49 144.28 322.19 220.87"/><path class="cls-18" d="M303.49,208.9a8.8,8.8,0,0,0-8.91,9.76,10.88,10.88,0,0,0,10.62,9.76,8.8,8.8,0,0,0,8.9-9.76A10.86,10.86,0,0,0,303.49,208.9Z" transform="translate(0 -58.73)"/><path class="cls-10" d="M301.7,219.33a3.08,3.08,0,0,0,3,2.77,2.5,2.5,0,0,0,2.53-2.77,3.1,3.1,0,0,0-3-2.78A2.5,2.5,0,0,0,301.7,219.33Z" transform="translate(0 -58.73)"/><path class="cls-18" d="M301.32,237.7a5.3,5.3,0,0,0,5.18,4.76,4.29,4.29,0,0,0,4.34-4.76,5.3,5.3,0,0,0-5.18-4.76h0A4.29,4.29,0,0,0,301.32,237.7Z" transform="translate(0 -58.73)"/><path class="cls-18" d="M303,249.89a4.57,4.57,0,0,0,4.47,4.12,3.71,3.71,0,0,0,3.76-4.12,4.58,4.58,0,0,0-4.48-4.11h0A3.7,3.7,0,0,0,303,249.89Z" transform="translate(0 -58.73)"/><path class="cls-18" d="M304.61,261.12a3.87,3.87,0,0,0,3.78,3.47,3.12,3.12,0,0,0,3.16-3.47,3.85,3.85,0,0,0-3.77-3.47h0A3.13,3.13,0,0,0,304.61,261.12Z" transform="translate(0 -58.73)"/><path class="cls-18" d="M306,270.42a3.16,3.16,0,0,0,3.08,2.83,2.55,2.55,0,0,0,2.58-2.83,3.15,3.15,0,0,0-3.08-2.83h0A2.56,2.56,0,0,0,306,270.42Z" transform="translate(0 -58.73)"/></g><g id="Video_Files" data-name="Video Files"><path class="cls-14" d="M115.28,180.29l-4.67-77.4c0-.1,0-.2,0-.3a3.72,3.72,0,0,1,3.75-3.68l206.19-.47a4.3,4.3,0,0,1,4.23,4l4.67,77.4c0,.1,0,.21,0,.31a3.71,3.71,0,0,1-3.75,3.67l-206.2.47A4.3,4.3,0,0,1,115.28,180.29Z" transform="translate(0 -58.73)"/><polygon class="cls-14" points="191.84 40.57 135.24 40.57 135.2 40.14 191.79 40 191.84 40.57"/><path class="cls-14" d="M329.45,180.13a3.72,3.72,0,0,1-3.75,3.67l-206.2.47a4.29,4.29,0,0,1-4.22-4l-4.67-77.4c0-.1,0-.21,0-.31a3.73,3.73,0,0,1,3.75-3.68l15.85,0-.32-3.69a5.48,5.48,0,0,1,5.55-6.08h44.43a6.76,6.76,0,0,1,6.61,6.08l.32,3.55,133.76-.3a4.32,4.32,0,0,1,4.22,4l4.67,77.39C329.45,179.93,329.45,180,329.45,180.13Z" transform="translate(0 -58.73)"/><path class="cls-10" d="M179.86,89.1a6.76,6.76,0,0,1,6.61,6.08l.32,3.55,133.76-.3a4.32,4.32,0,0,1,4.22,4l4.67,77.39c0,.12,0,.22,0,.32a3.71,3.71,0,0,1-3.71,3.67h0l-206.2.47a4.29,4.29,0,0,1-4.22-4l-4.67-77.4c0-.1,0-.21,0-.31a3.73,3.73,0,0,1,3.73-3.68h0l15.85,0-.32-3.69a5.48,5.48,0,0,1,5.55-6.08h44.43m0-3.06H135.43a8.54,8.54,0,0,0-8.6,9.41l0,.37-12.52,0a6.8,6.8,0,0,0-6.8,6.71v.52l4.67,77.41a7.33,7.33,0,0,0,7.24,6.85l206.25-.47a6.79,6.79,0,0,0,6.8-6.7c0-.2,0-.38,0-.57l-4.67-77.36a7.35,7.35,0,0,0-7.23-6.86h-.06l-131,.29-.07-.75A9.76,9.76,0,0,0,179.86,86Z" transform="translate(0 -58.73)"/><rect class="cls-10" x="121.72" y="23.04" width="45.8" height="57.59"/><g class="cls-15"><path d="M127.16,81.77h-5.44v44.67h1.49v-3.25h4v3.25h1.49V81.77Zm-4,24v-6.5h4v6.5Zm4,1.48v6.5h-4v-6.5Zm-4-9.47v-6.5h4v6.5Zm0-8v-6.5h4v6.5Zm0,32v-6.5h4v6.5Z" transform="translate(0 -58.73)"/></g><g class="cls-15"><path d="M166,81.77h-5.43v44.67h1.49v-3.25H166v3.25h1.49V81.77Zm-3.94,24v-6.5H166v6.5Zm3.94,1.48v6.5H162.1v-6.5Zm-3.94-9.47v-6.5H166v6.5Zm0-8v-6.5H166v6.5Zm0,32v-6.5H166v6.5Z" transform="translate(0 -58.73)"/></g><polygon class="cls-9" points="160.61 67.65 128.65 67.71 128.65 23.04 160.61 23.04 160.61 67.65"/><path class="cls-9" d="M157.85,104.69a13.23,13.23,0,1,1-13.22-13.22A13.22,13.22,0,0,1,157.85,104.69Z" transform="translate(0 -58.73)"/><polygon class="cls-14" points="141.07 39.04 152.05 46.69 141.07 54.34 141.07 39.04"/><polygon class="cls-10" points="152.05 46.69 151.21 47.27 141.06 40.21 141.06 39.04 152.05 46.69"/><path class="cls-14" d="M139.24,136.86v-4.57L137,136.06h-.8L134,132.39v4.47h-1.65v-7.62h1.45l2.86,4.74,2.8-4.74h1.45l0,7.62Z" transform="translate(0 -58.73)"/><path class="cls-14" d="M145.47,133.87l-1,1.07v1.92H142.7v-7.62h1.75v3.56l3.37-3.56h2l-3.16,3.4,3.35,4.22h-2.06Z" transform="translate(0 -58.73)"/><path class="cls-14" d="M157.64,129.24l-3.3,7.62H152.6l-3.29-7.62h1.9l2.32,5.45,2.35-5.45Z" transform="translate(0 -58.73)"/><rect class="cls-10" x="171.65" y="35.87" width="45.8" height="57.59"/><g class="cls-15"><path d="M177.09,94.6h-5.44v44.67h1.49V136h4v3.25h1.49V94.6Zm-4,24v-6.5h4v6.5Zm4,1.49v6.5h-4v-6.5Zm-4-9.48v-6.5h4v6.5Zm0-8v-6.5h4v6.5Zm0,31.94V128h4v6.5Z" transform="translate(0 -58.73)"/></g><g class="cls-15"><path d="M216,94.6h-5.43v44.67H212V136H216v3.25h1.49V94.6Zm-3.94,24v-6.5H216v6.5Zm3.94,1.49v6.5H212v-6.5ZM212,110.57v-6.5H216v6.5Zm0-8v-6.5H216v6.5Zm0,31.94V128H216v6.5Z" transform="translate(0 -58.73)"/></g><polygon class="cls-9" points="210.54 80.49 178.58 80.54 178.58 35.87 210.54 35.87 210.54 80.49"/><path class="cls-9" d="M207.78,117.53a13.23,13.23,0,1,1-13.22-13.23A13.22,13.22,0,0,1,207.78,117.53Z" transform="translate(0 -58.73)"/><polygon class="cls-14" points="191 51.88 201.98 59.53 191 67.17 191 51.88"/><polygon class="cls-10" points="201.98 59.52 201.15 60.1 191 53.04 191 51.88 201.98 59.52"/><path class="cls-14" d="M189.93,148.07h-3.54l-.67,1.63h-1.81l3.4-7.62h1.74l3.41,7.62h-1.85Zm-.55-1.34-1.21-2.92L187,146.73Z" transform="translate(0 -58.73)"/><path class="cls-14" d="M200.16,142.08l-3.3,7.62h-1.74l-3.29-7.62h1.91l2.31,5.44,2.36-5.44Z" transform="translate(0 -58.73)"/><path class="cls-14" d="M200.79,142.08h1.76v7.62h-1.76Z" transform="translate(0 -58.73)"/><rect class="cls-10" x="221.37" y="14.19" width="45.8" height="57.59"/><g class="cls-15"><path d="M226.8,72.92h-5.43v44.67h1.49v-3.25h3.94v3.25h1.49V72.92Zm-3.94,24v-6.5h3.94v6.5Zm3.94,1.48v6.5h-3.94v-6.5Zm-3.94-9.47v-6.5h3.94v6.5Zm0-8V74.4h3.94v6.5Zm0,31.95v-6.5h3.94v6.5Z" transform="translate(0 -58.73)"/></g><g class="cls-15"><path d="M265.68,72.92h-5.43v44.67h1.49v-3.25h3.94v3.25h1.49V72.92Zm-3.94,24v-6.5h3.94v6.5Zm3.94,1.48v6.5h-3.94v-6.5Zm-3.94-9.47v-6.5h3.94v6.5Zm0-8V74.4h3.94v6.5Zm0,31.95v-6.5h3.94v6.5Z" transform="translate(0 -58.73)"/></g><polygon class="cls-9" points="260.25 58.8 228.29 58.86 228.29 14.19 260.25 14.19 260.25 58.8"/><path class="cls-9" d="M257.49,95.84a13.22,13.22,0,1,1-13.22-13.22A13.22,13.22,0,0,1,257.49,95.84Z" transform="translate(0 -58.73)"/><polygon class="cls-14" points="240.71 30.2 251.7 37.84 240.71 45.49 240.71 30.2"/><polygon class="cls-10" points="251.7 37.84 250.86 38.42 240.71 31.36 240.71 30.2 251.7 37.84"/><path class="cls-14" d="M238.88,128v-4.58l-2.24,3.77h-.79l-2.24-3.67V128H232V120.4h1.46l2.85,4.73,2.81-4.73h1.45l0,7.62Z" transform="translate(0 -58.73)"/><path class="cls-14" d="M249,123.16c0,1.7-1.28,2.75-3.31,2.75H244.1V128h-1.76V120.4h3.3C247.67,120.4,249,121.45,249,123.16Zm-1.79,0c0-.84-.54-1.33-1.62-1.33H244.1v2.65h1.44C246.62,124.48,247.16,124,247.16,123.16Z" transform="translate(0 -58.73)"/><path class="cls-14" d="M256.47,126.42h-1.24V128h-1.72v-1.6h-4.1v-1.19L253,120.4h1.85L251.52,125h2v-1.43h1.66V125h1.24Z" transform="translate(0 -58.73)"/><rect class="cls-10" x="270.96" y="24.08" width="45.8" height="57.59"/><g class="cls-15"><path d="M276.4,82.81H271v44.67h1.49v-3.24h3.95v3.24h1.49V82.81Zm-3.95,24v-6.5h3.95v6.5Zm3.95,1.49v6.5h-3.95v-6.5Zm-3.95-9.48v-6.5h3.95v6.5Zm0-8V84.3h3.95v6.5Zm0,32v-6.5h3.95v6.5Z" transform="translate(0 -58.73)"/></g><g class="cls-15"><path d="M315.28,82.81h-5.43v44.67h1.49v-3.24h3.94v3.24h1.49V82.81Zm-3.94,24v-6.5h3.94v6.5Zm3.94,1.49v6.5h-3.94v-6.5Zm-3.94-9.48v-6.5h3.94v6.5Zm0-8V84.3h3.94v6.5Zm0,32v-6.5h3.94v6.5Z" transform="translate(0 -58.73)"/></g><polygon class="cls-9" points="309.85 68.7 277.89 68.75 277.89 24.08 309.85 24.08 309.85 68.7"/><circle class="cls-9" cx="293.87" cy="47.01" r="13.22"/><polygon class="cls-14" points="290.31 40.09 301.29 47.74 290.31 55.38 290.31 40.09"/><polygon class="cls-10" points="301.3 47.74 300.46 48.32 290.32 41.26 290.32 40.1 301.3 47.74"/><path class="cls-14" d="M288.48,137.91v-4.57l-2.24,3.77h-.8l-2.23-3.67v4.47h-1.66v-7.62H283l2.85,4.74,2.81-4.74h1.45l0,7.62Z" transform="translate(0 -58.73)"/><path class="cls-14" d="M291.46,134.1a4.17,4.17,0,1,1,4.16,3.94A3.94,3.94,0,0,1,291.46,134.1Zm6.55,0a2.39,2.39,0,1,0-2.39,2.44A2.32,2.32,0,0,0,298,134.1Z" transform="translate(0 -58.73)"/><path class="cls-14" d="M308.19,130.29l-3.3,7.62h-1.74l-3.28-7.62h1.9l2.32,5.44,2.35-5.44Z" transform="translate(0 -58.73)"/><path class="cls-10" d="M233.42,178.27H218.54a5.85,5.85,0,0,1-5.7-5.24l-.11-1.33a4.73,4.73,0,0,1,4.78-5.24h14.88Z" transform="translate(0 -58.73)"/><polygon class="cls-10" points="242.45 118.6 233.9 114.36 233.69 111.96 241.5 107.73 242.45 118.6"/><polygon class="cls-10" points="243.58 118.6 242.45 118.6 241.5 107.73 242.63 107.73 243.58 118.6"/><path class="cls-10" d="M222.35,161.39a3.71,3.71,0,0,1-3.76,4.11,4.57,4.57,0,0,1-4.47-4.11,3.71,3.71,0,0,1,3.75-4.12A4.58,4.58,0,0,1,222.35,161.39Z" transform="translate(0 -58.73)"/><path class="cls-10" d="M230.59,161.39a3.72,3.72,0,0,1-3.76,4.11,4.58,4.58,0,0,1-4.48-4.11,3.71,3.71,0,0,1,3.76-4.12A4.59,4.59,0,0,1,230.59,161.39Z" transform="translate(0 -58.73)"/></g><g id="Character"><g id="Character-2" data-name="Character"><path class="cls-19" d="M301.74,203.57a22.26,22.26,0,0,1-2.35,5.47,3.41,3.41,0,0,0,2.89.17Z" transform="translate(0 -58.73)"/><path class="cls-20" d="M323.85,209.37l-4.75,5-6.5,6.77a7.69,7.69,0,0,1,1.13,2.59c.58,2,1.08,3.51-3.32,5.49a2.66,2.66,0,0,0-1.65,2.34c0,1.25,1,2.61,5.34,2.69a19.69,19.69,0,0,0,11.67-3.89c1.66-1.18,1.5-2.25.46-4C323.17,221.53,323.25,214.74,323.85,209.37Z" transform="translate(0 -58.73)"/><path class="cls-7" d="M300.2,203.24c-.06.67.18,1.24.53,1.26s.67-.49.72-1.16-.18-1.23-.53-1.26S300.25,202.57,300.2,203.24Z" transform="translate(0 -58.73)"/><path class="cls-21" d="M300.79,199.5a4.48,4.48,0,0,1,4,1.56" transform="translate(0 -58.73)"/><path class="cls-20" d="M301.69,212.3a12.12,12.12,0,0,0,7.1,8,11.07,11.07,0,0,0,3.67.83,10.35,10.35,0,0,0,8.21-3.34c4.13-4.39,3.86-9.34,4.13-17.76a11.72,11.72,0,0,0-16.22-11.29C300.43,192.23,299.65,204.76,301.69,212.3Z" transform="translate(0 -58.73)"/><path class="cls-22" d="M308.79,220.34a11.07,11.07,0,0,0,3.67.83l.14-.06-.8-1.56S311.31,220.88,308.79,220.34Z" transform="translate(0 -58.73)"/><path class="cls-7" d="M328.16,205.52c-.9,3-2.13,6.15-4.43,8.33-.85.81-8.19,1.56-8.19,1.56-.35-2.48-4.9-10.46-6.89-13-.28,1.24-.74,6.59-1.16,7.77-.83,0-2.14-1.28-2.14-1.28a19.84,19.84,0,0,0,1-10.89l-.29-1.51c0,.32-4.85,2.6-7.21-1.81-8.81-16.49,13.79-13.56,20.06-7.13a6.21,6.21,0,0,1,6.39.8,10.19,10.19,0,0,1,3.51,5.66A21.74,21.74,0,0,1,328.16,205.52Z" transform="translate(0 -58.73)"/></g><path class="cls-7" d="M321.5,183.85a2.81,2.81,0,0,0-2.71,1.82c-.25.65-.5,2.22.23,2.55A23.62,23.62,0,0,1,321.5,183.85Z" transform="translate(0 -58.73)"/><path class="cls-20" d="M314.28,204.56a7.73,7.73,0,0,1-3,4.64c-2,1.42-4-.6-3.94-3,0-2.14,1.43-5.11,3.67-5.59S314.74,202.26,314.28,204.56Z" transform="translate(0 -58.73)"/><polygon class="cls-20" points="274.64 340.66 266.47 338.23 268.95 318.93 279 322.51 274.64 340.66"/><polygon class="cls-23" points="280.13 317.13 269.52 313.18 267.93 327.06 277.34 329.7 280.13 317.13"/><path class="cls-7" d="M265.78,395.58l9.31,2.52a.72.72,0,0,1,.48.84l-1.41,8.86a1.57,1.57,0,0,1-1.83,1.35c-3.22-.94-4.73-1.58-8.82-2.69-2.52-.68-8.28-2.32-11.8-3s-2.81-4.77-1.26-4.87c7-.44,11-1.27,13.77-2.82A2.09,2.09,0,0,1,265.78,395.58Z" transform="translate(0 -58.73)"/><path class="cls-10" d="M261.43,396.9a10.57,10.57,0,0,0,2.24.22.16.16,0,0,0,.17-.11.2.2,0,0,0,0-.21c-.22-.25-2.2-2.41-3.3-2.26a.71.71,0,0,0-.58.43,1.12,1.12,0,0,0,0,1.13A2.37,2.37,0,0,0,261.43,396.9Zm1.83-.18c-1.56-.11-2.65-.36-2.94-.85a.67.67,0,0,1,.05-.71.35.35,0,0,1,.27-.23C261.22,394.84,262.44,395.88,263.26,396.72Z" transform="translate(0 -58.73)"/><path class="cls-10" d="M263.68,397.12h.09a.2.2,0,0,0,.14-.14c0-.1.79-2.44.14-3.45a1,1,0,0,0-.75-.47.75.75,0,0,0-.84.42c-.41.86.41,2.89,1.12,3.58A.14.14,0,0,0,263.68,397.12Zm-.33-3.64a.61.61,0,0,1,.37.28,4.35,4.35,0,0,1-.09,2.76,4,4,0,0,1-.81-2.86c0-.11.14-.23.43-.19Z" transform="translate(0 -58.73)"/><path class="cls-10" d="M316,294.79s-45.71-.15-47.19,25.09c-1.45,17.74-2.37,25-1.49,63.66l12.17.67s12.38-41.83,10.71-58.44c13.64,0,44.86,1.19,49.39-11.11a54.62,54.62,0,0,0,3.24-19.49Z" transform="translate(0 -58.73)"/><g class="cls-24"><path d="M316,294.79s-45.71-.15-47.19,25.09c-1.45,17.74-2.37,25-1.49,63.66l12.17.67s12.38-41.83,10.71-58.44c13.64,0,44.86,1.19,49.39-11.11a54.62,54.62,0,0,0,3.24-19.49Z" transform="translate(0 -58.73)"/></g><polygon class="cls-10" points="281.46 327.84 265.56 325.11 265.82 318.08 282.28 321.74 281.46 327.84"/><polygon class="cls-20" points="243.09 343.19 235.39 339.54 240.78 320.85 250.17 325.91 243.09 343.19"/><polygon class="cls-23" points="252.1 320.77 242.23 315.25 238.53 328.73 247.43 332.77 252.1 320.77"/><path class="cls-7" d="M234.92,396.8l8.81,3.92a.71.71,0,0,1,.35.89l-2.75,8.55a1.58,1.58,0,0,1-2,1.06c-3-1.43-4.44-2.29-8.31-4-2.39-1.06-7.82-3.56-11.21-4.73s-2.05-5.15-.5-5c6.95.64,11,.42,14-.68A2.1,2.1,0,0,1,234.92,396.8Z" transform="translate(0 -58.73)"/><path class="cls-10" d="M230.42,397.44a10.81,10.81,0,0,0,2.17.56.18.18,0,0,0,.2-.08.2.2,0,0,0,0-.21c-.17-.28-1.8-2.71-2.91-2.73a.7.7,0,0,0-.65.34,1.14,1.14,0,0,0-.18,1.11A2.32,2.32,0,0,0,230.42,397.44Zm1.83.11c-1.52-.35-2.56-.77-2.77-1.29a.71.71,0,0,1,.15-.7.4.4,0,0,1,.31-.19C230.53,395.38,231.57,396.58,232.25,397.55Z" transform="translate(0 -58.73)"/><path class="cls-10" d="M232.6,398l.09,0a.26.26,0,0,0,.17-.12c0-.1,1.15-2.29.66-3.38a1,1,0,0,0-.67-.58.76.76,0,0,0-.9.28c-.53.79,0,2.92.57,3.71A.18.18,0,0,0,232.6,398Zm.23-3.65a.59.59,0,0,1,.33.33,4.38,4.38,0,0,1-.51,2.72,4,4,0,0,1-.37-3c0-.11.17-.2.46-.12Z" transform="translate(0 -58.73)"/><path class="cls-10" d="M301.63,294.79c-.32,0-50.91-4.93-54.3,23.84-5.37,35.22-8.75,64.91-8.75,64.91l10.65,5.28s18.56-37.59,18.28-61.16c14.83-4.26,53.2,2.89,57.74-9.4,3.71-10.06,1.7-23.47,1.7-23.47Z" transform="translate(0 -58.73)"/><path class="cls-11" d="M301.63,294.79c-.32,0-50.91-4.93-54.3,23.84-5.37,35.22-8.75,64.91-8.75,64.91l10.65,5.28s18.56-37.59,18.28-61.16c14.83-4.26,53.2,2.89,57.74-9.4,3.71-10.06,1.7-23.47,1.7-23.47Z" transform="translate(0 -58.73)"/><polygon class="cls-10" points="250.94 331.62 236.65 325.19 237.8 319.34 252.87 324.55 250.94 331.62"/><path class="cls-20" d="M326.09,232.3c1.15,3.16,2.05,6.19,3,9.33s1.65,6.27,2.33,9.47,1.22,6.46,1.6,9.82a50.28,50.28,0,0,1,.15,10.55,21.4,21.4,0,0,1-1.45,6,13.76,13.76,0,0,1-1.9,3.28,10.68,10.68,0,0,1-1.53,1.55l-.45.37c-.24.17-.51.36-.77.51a7.36,7.36,0,0,1-1.35.59,9.8,9.8,0,0,1-2.13.48,12.46,12.46,0,0,1-1.73.1,24,24,0,0,1-2.93-.25,40.74,40.74,0,0,1-5.12-1,98,98,0,0,1-18.19-7l1.86-5.17c6,1.27,12.2,2.6,18.05,3.38,1.47.13,2.88.32,4.21.37a13.18,13.18,0,0,0,1.78-.06c.49,0,.92-.18.78-.19l-.29.11a1.67,1.67,0,0,0-.28.18h0l.1-.15a4.34,4.34,0,0,0,.36-.83,13.31,13.31,0,0,0,.54-3.19,41.6,41.6,0,0,0-.5-8.27c-.4-2.94-1-5.82-1.67-8.76s-1.42-5.88-2.26-8.82-1.75-5.9-2.65-8.68Z" transform="translate(0 -58.73)"/><path class="cls-20" d="M300,272.58l-6.06-4.15-3.81,6.62s7.18,3.76,8.92,2Z" transform="translate(0 -58.73)"/><polygon class="cls-20" points="288.63 210.55 285.31 214.91 290.1 216.27 293.91 209.65 288.63 210.55"/><path class="cls-20" d="M262.65,266.75l-8.88-1-2.55,9.76s10.15.09,11.75-2.82Z" transform="translate(0 -58.73)"/><path class="cls-20" d="M247.11,269.36l-1.52,3.74a1.71,1.71,0,0,0,1.57,2.36l4.06,0,2.55-9.76-5.8,2.71A1.78,1.78,0,0,0,247.11,269.36Z" transform="translate(0 -58.73)"/><path class="cls-10" d="M339.84,230.29c-.73-1.93-4.1-3.86-6.18-3.86h-1.37A74.53,74.53,0,0,0,324,227a147.1,147.1,0,0,0-16.41,2.76,69.29,69.29,0,0,0-6.8,2.2l-.07,0a5.18,5.18,0,0,0-3.22,5.53c.85,6.21,2.49,18.84,3.47,31.41.77,9.81.45,19.55.7,26.25h41.17c1.42-8.05,1.19-15.07,1.31-29.6C344.24,256.81,342.82,238.23,339.84,230.29Z" transform="translate(0 -58.73)"/><path class="cls-25" d="M339.84,230.29c-.73-1.93-4.1-3.86-6.18-3.86h-1.37A74.53,74.53,0,0,0,324,227a147.1,147.1,0,0,0-16.41,2.76,69.29,69.29,0,0,0-6.8,2.2l-.07,0a5.18,5.18,0,0,0-3.22,5.53c.85,6.21,2.49,18.84,3.47,31.41.77,9.81.45,19.55.7,26.25h41.17c1.42-8.05,1.19-15.07,1.31-29.6C344.24,256.81,342.82,238.23,339.84,230.29Z" transform="translate(0 -58.73)"/><path class="cls-10" d="M304.25,232.43a6.47,6.47,0,0,1,3.76,8.39c-2.94,7.61-7.88,19.68-10.06,23.92-.83,1.51-1.66,3-2.6,4.53-.48.76-1,1.51-1.57,2.29-.32.4-.56.76-.93,1.17l-.53.61-.3.34a8,8,0,0,1-3,2,14.23,14.23,0,0,1-1.82.57,19,19,0,0,1-3.09.41,40.1,40.1,0,0,1-5.37,0,97.58,97.58,0,0,1-19.54-3.65l-.68-6.75c6.29.18,12.72.39,18.72.09,1.41-.08,2.82-.23,4.22-.45a10.62,10.62,0,0,0,1.66-.42,2.55,2.55,0,0,0,.5-.24c.05,0,0-.07-.25.12a1.64,1.64,0,0,0-.25.21l.09-.12.24-.32c.16-.19.34-.5.52-.75.35-.53.71-1.11,1.06-1.73.69-1.22,1.35-2.56,2-3.92,1.3-2.72,2.48-5.59,3.63-8.48.81-2.06,3.2-8.3,5.22-13.87a6.47,6.47,0,0,1,8.37-3.87Z" transform="translate(0 -58.73)"/><path class="cls-23" d="M300.1,259c.31,3.7.2,2.5.54,6.38,10.05-15.53,6.73-25.78,6.73-25.78Z" transform="translate(0 -58.73)"/><path class="cls-25" d="M304.25,232.43a6.47,6.47,0,0,1,3.76,8.39c-2.94,7.61-7.88,19.68-10.06,23.92-.83,1.51-1.66,3-2.6,4.53-.48.76-1,1.51-1.57,2.29-.32.4-.56.76-.93,1.17l-.53.61-.3.34a8,8,0,0,1-3,2,14.23,14.23,0,0,1-1.82.57,19,19,0,0,1-3.09.41,40.1,40.1,0,0,1-5.37,0,97.58,97.58,0,0,1-19.54-3.65l-.68-6.75c6.29.18,12.72.39,18.72.09,1.41-.08,2.82-.23,4.22-.45a10.62,10.62,0,0,0,1.66-.42,2.55,2.55,0,0,0,.5-.24c.05,0,0-.07-.25.12a1.64,1.64,0,0,0-.25.21l.09-.12.24-.32c.16-.19.34-.5.52-.75.35-.53.71-1.11,1.06-1.73.69-1.22,1.35-2.56,2-3.92,1.3-2.72,2.48-5.59,3.63-8.48.81-2.06,3.2-8.3,5.22-13.87a6.47,6.47,0,0,1,8.37-3.87Z" transform="translate(0 -58.73)"/><path class="cls-7" d="M290.74,410.14a4.2,4.2,0,1,1-4.2-4.2,4.2,4.2,0,0,1,4.2,4.2Z" transform="translate(0 -58.73)"/><path class="cls-7" d="M352.39,410.14a4.2,4.2,0,1,0,4.2-4.2,4.2,4.2,0,0,0-4.2,4.2Z" transform="translate(0 -58.73)"/><path class="cls-7" d="M316,408.8a4.2,4.2,0,1,0,4.2-4.2,4.2,4.2,0,0,0-4.2,4.2Z" transform="translate(0 -58.73)"/><path class="cls-7" d="M365.74,404.5a2.07,2.07,0,0,1-2.07,1.65l-43.78-.6-41,.92a2,2,0,0,1-.45-4l22.39-4.35a37.72,37.72,0,0,1,7-.66h24.06a37.7,37.7,0,0,1,7,.66l25.16,4A2,2,0,0,1,365.74,404.5Z" transform="translate(0 -58.73)"/><rect class="cls-7" x="312.44" y="302.17" width="14.89" height="42.86"/><rect class="cls-7" x="314.58" y="275.02" width="10.62" height="27.37"/><polygon class="cls-23" points="314.58 280.09 325.2 282.76 325.2 275.01 314.58 275.01 314.58 280.09"/><rect class="cls-7" x="275.35" y="235.91" width="5.39" height="23.02"/><rect class="cls-7" x="275.35" y="235.91" width="5.39" height="23.02"/><path class="cls-7" d="M316.51,243a11.85,11.85,0,0,0-.15,1.89v88.81h-8.57V244.93a1.48,1.48,0,0,1,0-.21Z" transform="translate(0 -58.73)"/><path class="cls-7" d="M366.41,333.64v.1H365A11.51,11.51,0,0,0,366.41,333.64Z" transform="translate(0 -58.73)"/><path class="cls-7" d="M375,242.47l-.63-10.55a12.6,12.6,0,0,0-3.48-7.95l-6.73-7-3.46-17.58a5.83,5.83,0,0,0-5.72-4.72H339.47a5.83,5.83,0,0,0-5.52,4l-6.49,18.91-12.38,7.62a12.61,12.61,0,0,0-5.86,8.87l-1.6,10.77.18,0,8.71-1.68a11.85,11.85,0,0,0-.15,1.89v88.81H365a11.51,11.51,0,0,0,1.45-.1h0a10,10,0,0,0,8.56-9.92V244.15a14,14,0,0,0-.11-1.71Zm-41.09-6.7-15,1.43-.66.06,1.61-6.86,10.05-4.85,3.34-1.61.66,1.61.11.27.61,1.48Zm29.71.17h0l-1.89-.47c-.07-.59-.15-1.19-.22-1.78-.42-3.29-.8-6.39-.8-6.39l.15-1.08.31-2.28,7.15,6.46.1,1.53.37,5.33Z" transform="translate(0 -58.73)"/><path class="cls-7" d="M316.36,314.39v19.35h-56.5a6.93,6.93,0,0,1-6-10.48,18,18,0,0,1,15.52-8.87Z" transform="translate(0 -58.73)"/><path class="cls-7" d="M296.37,301.67a55.59,55.59,0,0,0-36.68,0,5.21,5.21,0,0,1-6.45-2.46h0c-1.1-2.33.37-5.34,3.37-6.39a64.83,64.83,0,0,1,42.82,0c3,1,4.47,4.06,3.37,6.39h0A5.22,5.22,0,0,1,296.37,301.67Z" transform="translate(0 -58.73)"/><path class="cls-26" d="M296.37,301.67a55.59,55.59,0,0,0-36.68,0,5.21,5.21,0,0,1-6.45-2.46h0c-1.1-2.33.37-5.34,3.37-6.39a64.83,64.83,0,0,1,42.82,0c3,1,4.47,4.06,3.37,6.39h0A5.22,5.22,0,0,1,296.37,301.67Z" transform="translate(0 -58.73)"/></g></svg>